<svg xmlns="http://www.w3.org/2000/svg"><symbol viewBox="0 0 20 20" id="shape-arrow-left"><title>arrow-left</title>  <path d="M13.999 5.4l0.001 9.2-8-4.6z"/> </symbol><symbol viewBox="0 0 20 20" id="shape-arrow-right"><title>arrow-right</title>  <path d="M6.001 5.4l-0.001 9.2 8-4.6z" fill="#F8992F"/> </symbol><symbol viewBox="0 0 32 32" id="shape-facebook"><title>facebook</title>  <path d="M26.667 0h-21.333c-2.933 0-5.334 2.4-5.334 5.334v21.332c0 2.936 2.4 5.334 5.334 5.334l21.333-0c2.934 0 5.333-2.398 5.333-5.334v-21.332c0-2.934-2.399-5.334-5.333-5.334zM27.206 16h-5.206v14h-6v-14h-2.891v-4.58h2.891v-2.975c0-4.042 1.744-6.445 6.496-6.445h5.476v4.955h-4.473c-1.328-0.002-1.492 0.692-1.492 1.985l-0.007 2.48h6l-0.794 4.58z"/> </symbol><symbol viewBox="0 0 32 32" id="shape-feed2"><title>feed2</title>  <path d="M4.259 23.467c-2.35 0-4.259 1.917-4.259 4.252 0 2.349 1.909 4.244 4.259 4.244 2.358 0 4.265-1.895 4.265-4.244-0-2.336-1.907-4.252-4.265-4.252zM0.005 10.873v6.133c3.993 0 7.749 1.562 10.577 4.391 2.825 2.822 4.384 6.595 4.384 10.603h6.16c-0-11.651-9.478-21.127-21.121-21.127zM0.012 0v6.136c14.243 0 25.836 11.604 25.836 25.864h6.152c0-17.64-14.352-32-31.988-32z" fill="#000000"/> </symbol><symbol viewBox="0 0 32 32" id="shape-github"><title>github</title>  <path d="M16 0c-8.837 0-16 7.163-16 16s7.163 16 16 16 16-7.163 16-16-7.163-16-16-16zM25.502 25.502c-1.235 1.235-2.672 2.204-4.272 2.881-0.406 0.172-0.819 0.323-1.238 0.453v-2.398c0-1.26-0.432-2.188-1.297-2.781 0.542-0.052 1.039-0.125 1.492-0.219s0.932-0.229 1.438-0.406 0.958-0.388 1.359-0.633 0.786-0.563 1.156-0.953 0.68-0.833 0.93-1.328 0.448-1.089 0.594-1.781 0.219-1.456 0.219-2.289c0-1.615-0.526-2.99-1.578-4.125 0.479-1.25 0.427-2.609-0.156-4.078l-0.391-0.047c-0.271-0.031-0.758 0.083-1.461 0.344s-1.492 0.688-2.367 1.281c-1.24-0.344-2.526-0.516-3.859-0.516-1.344 0-2.625 0.172-3.844 0.516-0.552-0.375-1.075-0.685-1.57-0.93s-0.891-0.411-1.188-0.5-0.573-0.143-0.828-0.164-0.419-0.026-0.492-0.016-0.125 0.021-0.156 0.031c-0.583 1.479-0.635 2.839-0.156 4.078-1.052 1.135-1.578 2.51-1.578 4.125 0 0.833 0.073 1.596 0.219 2.289s0.344 1.286 0.594 1.781 0.56 0.938 0.93 1.328 0.755 0.708 1.156 0.953 0.854 0.456 1.359 0.633 0.984 0.313 1.438 0.406 0.95 0.167 1.492 0.219c-0.854 0.583-1.281 1.51-1.281 2.781v2.445c-0.472-0.14-0.937-0.306-1.394-0.5-1.6-0.677-3.037-1.646-4.272-2.881s-2.204-2.672-2.881-4.272c-0.7-1.655-1.055-3.414-1.055-5.23s0.355-3.575 1.055-5.23c0.677-1.6 1.646-3.037 2.881-4.272s2.672-2.204 4.272-2.881c1.655-0.7 3.415-1.055 5.23-1.055s3.575 0.355 5.23 1.055c1.6 0.677 3.037 1.646 4.272 2.881s2.204 2.672 2.881 4.272c0.7 1.655 1.055 3.415 1.055 5.23s-0.355 3.575-1.055 5.23c-0.677 1.6-1.646 3.037-2.881 4.272z" fill="#000000"/> </symbol><symbol viewBox="0 0 32 32" id="shape-googleplus"><title>googleplus</title>  <path d="M13.656 25.568c0 2.346-1.45 4.2-5.555 4.349-2.406-1.368-4.422-3.342-5.841-5.715 0.74-1.828 3.053-3.22 5.697-3.191 0.751 0.008 1.45 0.129 2.086 0.334 1.747 1.215 3.156 1.974 3.51 3.358 0.066 0.28 0.103 0.569 0.103 0.864zM16 0c-4.623 0-8.787 1.962-11.708 5.097 1.154-0.639 2.517-1.020 3.966-1.020 2.096 0 8.014 0 8.014 0l-1.791 1.879h-2.103c1.484 0.85 2.274 2.601 2.274 4.532 0 1.772-0.982 3.199-2.368 4.283-1.352 1.056-1.609 1.499-1.609 2.398 0 0.767 1.616 1.909 2.359 2.467 2.588 1.941 3.112 3.162 3.112 5.59 0 2.46-2.154 4.91-5.808 5.742 1.761 0.667 3.67 1.033 5.664 1.033 8.837 0 16-7.163 16-16s-7.163-16-16-16zM24 12v4h-2v-4h-4v-2h4v-4h2v4h4v2h-4zM11.43 10.608c0.373 2.837-0.87 4.662-3.029 4.598-2.16-0.065-4.213-2.047-4.586-4.883-0.373-2.837 1.076-5.008 3.235-4.944s4.007 2.392 4.379 5.228zM6.903 20.065c-2.334 0-4.316 0.805-5.714 1.996-0.766-1.869-1.189-3.915-1.189-6.060 0-1.774 0.289-3.48 0.822-5.075 0.23 3.108 2.417 5.506 6.030 5.506 0.266 0 0.524-0.014 0.777-0.032-0.248 0.476-0.426 1.006-0.426 1.562 0 0.937 0.515 1.471 1.152 2.090-0.481 0-0.946 0.013-1.454 0.013z" fill="#000000"/> </symbol><symbol viewBox="0 0 32 32" id="shape-headphones"><title>headphones</title>  <path d="M6 18.071v13.857c0.327 0.047 0.66 0.071 1 0.071h1v-14h-1c-0.34 0-0.673 0.025-1 0.071zM24 18v14h1c0.34 0 0.673-0.025 1-0.071v-13.857c-0.327-0.047-0.66-0.071-1-0.071h-1zM32 16c0-8.837-7.163-16-16-16s-16 7.163-16 16c0 1.919 0.338 3.76 0.958 5.465-0.609 1.038-0.958 2.245-0.958 3.535 0 2.792 1.635 5.202 4 6.326v-12.652c-0.629 0.299-1.206 0.689-1.714 1.153-0.187-0.913-0.286-1.859-0.286-2.827 0-7.732 6.268-14 14-14s14 6.268 14 14c0 0.969-0.098 1.914-0.286 2.827-0.509-0.464-1.085-0.854-1.714-1.153v12.652c2.365-1.124 4-3.534 4-6.326 0-1.29-0.349-2.498-0.958-3.535 0.62-1.705 0.958-3.546 0.958-5.465z" fill="#000000"/> </symbol><symbol viewBox="0 0 32 32" id="shape-instagram"><title>instagram</title>  <path d="M26.688 0h-21.375c-2.922 0-5.313 2.391-5.313 5.313v21.375c0 2.922 2.391 5.313 5.313 5.313h21.375c2.922 0 5.313-2.391 5.313-5.313v-21.375c0-2.922-2.391-5.313-5.313-5.313zM10.244 14h11.513c0.218 0.627 0.337 1.3 0.337 2 0 3.36-2.734 6.094-6.094 6.094s-6.094-2.734-6.094-6.094c0-0.7 0.119-1.373 0.338-2zM28 14.002v11.998c0 1.1-0.9 2-2 2h-20c-1.1 0-2-0.9-2-2v-12h3.128c-0.145 0.644-0.222 1.313-0.222 2 0 5.014 4.079 9.094 9.094 9.094s9.094-4.079 9.094-9.094c0-0.687-0.077-1.356-0.222-2l3.128 0.002zM28 7c0 0.55-0.45 1-1 1h-2c-0.55 0-1-0.45-1-1v-2c0-0.55 0.45-1 1-1h2c0.55 0 1 0.45 1 1v2z"/> </symbol><symbol viewBox="0 0 32 32" id="shape-link"><title>link</title>  <path d="M29.794 2.333l-0.126-0.126c-2.942-2.942-7.756-2.942-10.698 0l-6.816 6.817c-2.942 2.942-2.942 7.756 0 10.697l0.126 0.126c0.245 0.245 0.505 0.466 0.773 0.671l2.495-2.495c-0.291-0.172-0.566-0.377-0.816-0.627l-0.126-0.126c-1.597-1.597-1.597-4.196 0-5.793l6.816-6.816c1.597-1.597 4.196-1.597 5.793 0l0.126 0.126c1.597 1.597 1.597 4.197 0 5.793l-3.084 3.084c0.535 1.322 0.789 2.731 0.767 4.137l4.769-4.769c2.942-2.942 2.942-7.756-0-10.697zM19.72 12.154c-0.245-0.245-0.505-0.466-0.773-0.67l-2.495 2.495c0.291 0.172 0.566 0.377 0.816 0.627l0.126 0.126c1.597 1.597 1.597 4.196 0 5.793l-6.817 6.817c-1.597 1.597-4.196 1.597-5.793 0l-0.126-0.126c-1.597-1.598-1.597-4.196 0-5.793l3.084-3.084c-0.535-1.322-0.789-2.731-0.767-4.137l-4.769 4.769c-2.942 2.942-2.942 7.756 0 10.698l0.126 0.126c2.942 2.942 7.756 2.942 10.698 0l6.816-6.816c2.942-2.942 2.942-7.756 0-10.698l-0.126-0.126z"/> </symbol><symbol viewBox="0 0 157.2 123.4" id="shape-logo"><title>logo</title>  <path fill="#1E427C" d="M157.2,123.4c0,0-31.9-4.9-33.5-7.8c-5-9.2-24-6.7-17.8-13.5c1-1.1,2.8-1.8,4.3-2.3c3.9-1.5,4.2-4.9,4.2-8.1
	c0-3.1-1.8-5.3-5.1-5.8c-5.7-0.8-11.5-1.7-17.2-2.3c-2.2-0.2-4.6-2.5-4.6-2.5s-0.6-1.7-0.6-2.8c-0.1-2.8,2.1-9.9,2-12.6
	c-0.1-7.3-2.5-10.2-2.7-17.5c-0.1-3.2-0.8-6.1-0.8-9.2c0.8-3.5,0.5-7.6,1.8-11c1-2.7,2.8-5,3.7-7.6c1.8-4.8,3.5-3.3,5.1-14.8
	C96,4.7,96.7,3.2,96.8,2c0.1-0.9,0.1-2.6-1.7-1.9c-0.2,0.1-1.6,1.4-2,2.2s0.5,2.6,0.5,2.6s-3,8.5-3.6,9.2c-2.2,2.4-3.6,5.4-5.5,7.1
	c-1.4,1.2-1.7,0-3.2,0.6c0.5-1.8,1-2.7,1-5.8c0-1.9-1.2-4.2-4.4-4.2c-3.2,0-3.5,3.2-3.7,4.8c-0.2,1.3,1.5,4.1,1.9,5.7
	c-3.4-2.6-3.9-0.4-8.8-7.6c-1.9-2.8-4.3-5.9-4.5-8.4c-0.1-1.2,0.1-3.2-0.5-4c-0.6-0.8-2.9-1.7-3.1-1.1c-0.4,0.9,1.1,4.6,1.1,5.3
	c0.2,1.8,1.5,6.6,3.1,10.1c0.8,1.8,4.5,5.9,5.3,7.6c0.1,0.3,0.2,0.6,0.4,0.8c-1.3,0.4-3,1-3.3,1.6c-0.5,1,1,10.1,1,10.1l-1.2,1.2
	c0,0,0.3,4.1,0.3,5.2c0,3.6-0.5,4.7,1,5.8c-0.2,0.8-0.4,1.6-0.5,2.1c-0.5,1.2-2.8,3.3-2.8,3.3l0.9-0.2c0,0,1.5-0.5,2.4-2.7
	c0.3-0.6,0.5-1.4,0.7-2.1l1.1,0.3c-0.7,1.8-1.5,2.6-1.5,2.6s0.9,0.6,1.9-1.1c0.2-0.3,0.3-0.7,0.5-1.2l0.8,0.2
	c0.1,2.5,0.6,4.2,0.8,5.8c0.5,4.2,0.9,7.6,0.1,12.4c-0.6,4.1-2.5,6-2.8,10.1c-0.2,1.9-0.3,1.9-0.4,4.3c-3.1-1-5.5-0.2-7.9-0.5
	c-3.2-0.4-6.4-0.1-9.6-0.1c-0.7,1-1.5,3-2.2,3c-5.7-0.3-5.7,4.5-7.4,7.8c-1.3,2.5-2.3,5.2-3.7,7.6c-1.8,3-1.4,5.6,0.6,8.3
	c2.2,2.9-10.8-0.3-13.8,1.5c-1.2,0.8-11.8,6.5-24,13.2L157.2,123.4z M83,81.4c0,0.8-1.9,0.3-2.8,0.3c-2.4,0.1-3.6,1.1-6.9,0.7
	c1.4-5.5,2.6-8.9,3.7-11.7c1.5-4,1.5-8.7,2.2-15.7c0.7,2.5,2.4,7.4,2.4,7.4s0.8,2.8,1,4C83.4,71.9,82.7,75.8,83,81.4z"/> </symbol><symbol viewBox="0 0 663.5 340.7" id="shape-mtns"><title>mtns</title><path fill="#043F7E" d="M560,115.9c0,0,1,7.9-3.5,14c-16.9,22.8,2.7,21.9,1.8,27.4c-0.5,2.7-9.8,10.8-22.5,18.8l-12.1-15.2
	c4.8-4.7,8.3-8.4,8.6-9.5c1.8-6.3,14.3-23,12.4-24.3L515,149.9l-90.8-99.4c-0.6-0.7,6.2,30.3,0.1,42.5c-5,10.1,7.8,13.5,14.1,30.7
	c5,13.6,11.7,32.5,20.3,40.2c0,0,0,0,0-0.1c-4.3-10.5-0.2-0.6,0,0c0,0.1,0.1,0.2,0.1,0.3c4.7,11.4-13.6,18.2-3,27.5
	c10.6,9.4-13,48.1-14.5,51.1c-0.1,0.2-2.6-41.3-10.6-44.7c-23.2-9.8-27.7-2.1-29.4-8.1c-1.7-6,3.1-4.6,6.7-8.4
	c5.3-5.6,4.5-43.8,4-68.8c0-1.3-1.6-2-2.6-1.1c-7.8,7.5-6,19.2-13.5,32.7c-8.7,15.7-46.1,45.3-44.3,73.6c1.2,18.5,0.2,31.3-7.7,43.4
	c-0.8,1.3-2.8,0.7-2.8-0.8c0-9.2,0.2-29.9,0.3-39.9c0-1.6-2-2.1-2.8-0.8c-3.9,6.7-92.9,47.7-80.1,34.9
	c12.8-12.8,15.3-27.6,15.3-27.6c18.7-14.8,29.1-30.6,46.7-41.1c13.4-8,21-6.1,28.6-19c7.4-12.6,5.6-22.5,15.3-35.4
	c3.8-5,38.6-49,39.3-58.6c-38.4,41.4-120.9,127.4-141.5,147.9c0,0-0.8,0.8-2.1,2.1c-18.4-14-31.4-23.7-46.7-40.1
	c0.5,6.1,22.7,34.1,25.1,37.3c6.1,8.2,5-5.5,9.7,2.6c1.9,3.2,3.8,5,5.9,6.2c-4.1,4.1-9.1,9.1-13.9,13.7c-7.9-5.3-18.6-8.4-21.9-14.4
	c-4.8-8.6,0.4-5-4.6-9.8c-0.6-0.6-1.6-0.1-1.7,0.7c-0.3,16-36.8,29-33.8,21.8c0-0.1,0-0.1,0.1-0.2c0.1-0.4,2.8-6.7,0,0c0,0,0,0,0,0
	c5.5-4.9,9.8-16.9,12.9-25.6c4-11,12.2-13.2,9-19.6c-3.9-7.8,0.4-27.6,0.1-27.1l-69.1,83.9L111,239.1c-1.2,0.9,6.6,15.1,7.8,19.2
	c0.2,0.7,2.4,3,5.5,6.1l-7.7,9.7c-8.1-5.1-14.1-10.2-14.4-12c-0.6-3.5,11.9-2.9,1.2-17.4c-2.9-3.9-2.2-8.9-2.2-8.9L0,340.7h663.5
	V220.6L560,115.9z"/><g><g><g><path fill="#F69220" d="M531,79.6c0,0-0.1-0.3-0.2-0.9c-0.1-0.6-0.3-1.5-0.6-2.6c-0.3-1.1-0.6-2.5-1.1-4
				c-0.1-0.4-0.2-0.8-0.4-1.2c-0.1-0.4-0.3-0.8-0.4-1.2c-0.3-0.8-0.6-1.7-1-2.6c-0.4-0.9-0.7-1.9-1.2-2.8c-0.4-1-0.9-2-1.4-2.9
				c-0.3-0.5-0.5-1-0.8-1.5c-0.3-0.5-0.6-1-0.9-1.5c-0.3-0.5-0.6-1.1-0.9-1.5c-0.3-0.5-0.7-1-1-1.6c-0.3-0.5-0.7-1-1-1.6
				c-0.4-0.5-0.7-1-1.1-1.5c-0.4-0.5-0.7-1-1.1-1.5c-0.4-0.5-0.8-1-1.2-1.5c-0.4-0.5-0.8-1-1.2-1.5c-0.4-0.5-0.9-0.9-1.3-1.4
				c-0.4-0.5-0.9-1-1.3-1.4l-1.4-1.3c-0.5-0.4-0.9-0.9-1.4-1.3l-1.4-1.3c-0.9-0.9-2-1.6-3-2.4c-2-1.5-4.1-2.9-6.2-4.2
				c-1-0.7-2.1-1.2-3.1-1.7c-1-0.6-2.1-1-3.1-1.5c-1-0.5-2-0.9-3-1.3c-0.5-0.2-1-0.4-1.4-0.6c-0.5-0.2-0.9-0.3-1.4-0.5
				c-1.8-0.7-3.6-1.2-5.1-1.6c-1.5-0.4-2.9-0.7-4-1c-2.3-0.4-3.6-0.7-3.6-0.7s1.3,0,3.6,0.2c1.1,0.1,2.6,0.3,4.1,0.5
				c0.8,0.1,1.6,0.3,2.5,0.5c0.5,0.1,0.9,0.2,1.4,0.3c0.5,0.1,0.9,0.2,1.4,0.4c0.5,0.1,1,0.3,1.5,0.4c0.5,0.2,1,0.3,1.5,0.5
				c1,0.3,2.1,0.7,3.1,1.1c2.1,0.8,4.4,1.8,6.6,3.1c1.1,0.6,2.2,1.2,3.3,1.9c1.1,0.7,2.2,1.4,3.2,2.2c1.1,0.8,2.1,1.6,3.1,2.5
				l1.5,1.3c0.5,0.4,1,0.9,1.5,1.4l1.4,1.4c0.5,0.5,0.9,1,1.3,1.5c0.4,0.5,0.9,1,1.3,1.5c0.4,0.5,0.8,1,1.2,1.6
				c0.4,0.5,0.8,1,1.2,1.6c0.4,0.5,0.7,1.1,1.1,1.6c0.4,0.5,0.7,1.1,1.1,1.6c0.3,0.5,0.6,1.1,0.9,1.6c0.3,0.5,0.6,1.1,0.9,1.6
				c0.3,0.6,0.6,1.1,0.9,1.7c0.3,0.5,0.5,1.1,0.8,1.6c0.2,0.5,0.5,1.1,0.7,1.6c0.5,1,0.9,2.1,1.2,3.1c0.4,1,0.7,2,1,3
				c0.3,0.9,0.5,1.9,0.8,2.8c0.1,0.4,0.2,0.9,0.3,1.3c0.1,0.4,0.2,0.8,0.2,1.2c0.3,1.6,0.5,3,0.6,4.1c0.2,1.1,0.2,2.1,0.2,2.7
				C531,79.3,531,79.6,531,79.6z"/></g><g><path fill="#F69220" d="M554.8,82.3c0,0-0.1-0.5-0.2-1.5c-0.1-1-0.3-2.5-0.6-4.3c-0.2-0.9-0.3-1.9-0.5-3
				c-0.2-1.1-0.5-2.3-0.8-3.5c-0.3-1.3-0.7-2.6-1-4c-0.4-1.4-0.9-2.8-1.3-4.3c-0.5-1.5-1.1-3-1.7-4.6c-0.3-0.8-0.7-1.6-1-2.4
				c-0.2-0.4-0.3-0.8-0.5-1.2c-0.2-0.4-0.4-0.8-0.6-1.2c-0.4-0.8-0.8-1.6-1.2-2.5l-0.2-0.3l-0.2-0.3l-0.3-0.6
				c-0.2-0.4-0.5-0.8-0.7-1.2c-0.5-0.8-0.9-1.7-1.4-2.5c-0.2-0.4-0.5-0.9-0.7-1.3c-0.3-0.4-0.5-0.8-0.8-1.2
				c-0.5-0.8-1.1-1.6-1.6-2.5c-0.5-0.8-1.1-1.7-1.7-2.5c-0.6-0.8-1.2-1.6-1.9-2.4c-0.6-0.8-1.2-1.7-1.9-2.4
				c-0.7-0.8-1.4-1.5-2.1-2.3l-1-1.2l-0.5-0.6l-0.6-0.5c-0.7-0.7-1.5-1.5-2.2-2.2l-1.1-1.1l-0.6-0.5l-0.6-0.5l-2.4-2
				c-0.8-0.7-1.6-1.4-2.4-2c-0.8-0.6-1.7-1.2-2.5-1.9c-0.8-0.6-1.6-1.3-2.5-1.8c-0.9-0.5-1.7-1.1-2.6-1.6c-0.9-0.5-1.7-1.1-2.6-1.6
				c-0.9-0.5-1.8-1-2.6-1.4c-0.4-0.2-0.9-0.5-1.3-0.7l-0.7-0.4l-0.7-0.3c-1.8-0.8-3.5-1.6-5.3-2.4c-1.8-0.7-3.5-1.3-5.2-2
				c-1.7-0.6-3.4-1-5-1.5c-0.4-0.1-0.8-0.3-1.2-0.4c-0.4-0.1-0.8-0.2-1.2-0.3c-0.8-0.2-1.6-0.4-2.4-0.5c-0.8-0.2-1.5-0.4-2.3-0.5
				c-0.7-0.1-1.5-0.2-2.2-0.4c-1.4-0.2-2.8-0.5-4.1-0.7c-2.6-0.2-4.8-0.5-6.7-0.6c-3.7-0.1-5.8-0.2-5.8-0.2s0.5,0,1.5-0.1
				c1-0.1,2.5-0.1,4.3-0.3c1.9,0,4.1,0,6.7,0.1c1.3,0.1,2.7,0.3,4.1,0.4c0.7,0.1,1.5,0.1,2.2,0.2c0.8,0.1,1.5,0.3,2.3,0.4
				c0.8,0.1,1.6,0.3,2.4,0.4c0.4,0.1,0.8,0.1,1.3,0.2c0.4,0.1,0.8,0.2,1.3,0.3c1.7,0.4,3.4,0.9,5.2,1.4c1.8,0.6,3.6,1.2,5.4,1.8
				c1.8,0.7,3.6,1.5,5.5,2.3l0.7,0.3l0.7,0.3c0.5,0.2,0.9,0.5,1.4,0.7c0.9,0.5,1.8,0.9,2.8,1.4c0.9,0.4,1.8,1,2.7,1.6
				c0.9,0.6,1.8,1.1,2.7,1.7c0.9,0.5,1.8,1.2,2.6,1.8c0.9,0.6,1.7,1.3,2.6,1.9c0.9,0.6,1.7,1.4,2.5,2l2.5,2.1l0.6,0.5l0.6,0.6
				l1.1,1.1c0.8,0.8,1.5,1.5,2.3,2.3l0.6,0.6l0.5,0.6l1.1,1.2c0.7,0.8,1.4,1.6,2.1,2.4c0.7,0.8,1.3,1.7,1.9,2.5
				c0.6,0.8,1.2,1.7,1.9,2.5c0.6,0.8,1.2,1.7,1.7,2.6c0.5,0.9,1.1,1.7,1.6,2.6c0.3,0.4,0.5,0.9,0.8,1.3c0.3,0.4,0.5,0.9,0.7,1.3
				c0.5,0.9,0.9,1.7,1.3,2.6c0.2,0.4,0.4,0.9,0.7,1.3l0.3,0.6l0.2,0.4l0.1,0.3c0.4,0.9,0.8,1.7,1.1,2.6c0.2,0.4,0.4,0.8,0.5,1.3
				c0.2,0.4,0.3,0.8,0.5,1.3c0.3,0.8,0.6,1.7,0.9,2.5c0.6,1.6,1,3.3,1.5,4.8c0.4,1.6,0.8,3,1.1,4.5c0.3,1.4,0.6,2.8,0.8,4.1
				c0.2,1.3,0.4,2.5,0.5,3.6c0.1,1.1,0.2,2.2,0.3,3.1c0.2,1.9,0.2,3.3,0.2,4.3C554.8,81.7,554.8,82.3,554.8,82.3z"/></g></g><g><g><path fill="#F69220" d="M505.3,77c0,0,0-0.1-0.1-0.4c-0.1-0.3-0.1-0.7-0.2-1.2c-0.1-0.5-0.2-1.1-0.4-1.8c0-0.2-0.1-0.3-0.1-0.5
				c-0.1-0.2-0.1-0.4-0.2-0.6c-0.1-0.4-0.2-0.8-0.4-1.2c-0.2-0.4-0.3-0.8-0.5-1.3c-0.2-0.4-0.4-0.9-0.6-1.3
				c-0.1-0.2-0.2-0.5-0.3-0.7c-0.1-0.2-0.2-0.5-0.4-0.7c-0.1-0.2-0.2-0.5-0.4-0.7c-0.1-0.2-0.3-0.5-0.4-0.7
				c-0.1-0.2-0.3-0.5-0.4-0.7c-0.2-0.2-0.3-0.4-0.5-0.7c-0.2-0.2-0.3-0.5-0.5-0.7c-0.2-0.2-0.3-0.4-0.5-0.7
				c-0.2-0.2-0.3-0.4-0.5-0.7c-0.2-0.2-0.4-0.4-0.6-0.6c-0.2-0.2-0.4-0.4-0.6-0.6l-0.6-0.6c-0.2-0.2-0.4-0.4-0.6-0.6l-0.6-0.6
				c-0.4-0.4-0.9-0.7-1.3-1.1c-0.9-0.7-1.8-1.4-2.7-1.9c-0.4-0.3-0.9-0.5-1.4-0.8c-0.4-0.3-0.9-0.5-1.3-0.7
				c-0.4-0.2-0.9-0.4-1.3-0.6c-0.2-0.1-0.4-0.2-0.6-0.3c-0.2-0.1-0.4-0.2-0.6-0.2c-0.8-0.3-1.6-0.6-2.2-0.8
				c-0.7-0.2-1.3-0.3-1.8-0.5c-1-0.2-1.6-0.3-1.6-0.3s0.6,0,1.6,0.1c0.5,0.1,1.1,0.1,1.8,0.3c0.4,0.1,0.7,0.2,1.1,0.2
				c0.2,0,0.4,0.1,0.6,0.2c0.2,0.1,0.4,0.1,0.6,0.2c0.2,0.1,0.4,0.1,0.7,0.2c0.2,0.1,0.4,0.2,0.7,0.2c0.5,0.2,0.9,0.3,1.4,0.5
				c0.9,0.4,1.9,0.9,2.9,1.4c0.5,0.3,1,0.6,1.4,0.9c0.5,0.3,1,0.6,1.4,1c0.5,0.4,0.9,0.7,1.4,1.1l0.7,0.6c0.2,0.2,0.4,0.4,0.6,0.6
				l0.6,0.6c0.2,0.2,0.4,0.5,0.6,0.7c0.2,0.2,0.4,0.5,0.6,0.7c0.2,0.2,0.4,0.5,0.5,0.7c0.2,0.2,0.4,0.5,0.5,0.7
				c0.2,0.2,0.3,0.5,0.5,0.7c0.2,0.2,0.3,0.5,0.5,0.7c0.1,0.2,0.3,0.5,0.4,0.7c0.1,0.2,0.3,0.5,0.4,0.7c0.1,0.3,0.2,0.5,0.4,0.7
				c0.1,0.2,0.2,0.5,0.3,0.7c0.1,0.2,0.2,0.5,0.3,0.7c0.2,0.5,0.4,0.9,0.5,1.4c0.2,0.5,0.3,0.9,0.4,1.3c0.1,0.4,0.2,0.8,0.3,1.2
				c0,0.2,0.1,0.4,0.1,0.6c0,0.2,0.1,0.4,0.1,0.6c0.1,0.7,0.2,1.3,0.2,1.9c0.1,0.5,0,0.9,0.1,1.2C505.3,76.8,505.3,77,505.3,77z"/></g></g></g></symbol><symbol viewBox="0 0 24 32" id="shape-new-window"><title>new-window</title>  <path d="M20 24h-16v-15.94l4-0.060v-4h-8v24h24v-10h-4v6zM12 4l4 4-6 6 4 4 6-6 4 4v-12h-12z"/> </symbol><symbol viewBox="0 0 32 32" id="shape-quotes-left"><title>quotes-left</title>  <path d="M7.031 14c3.866 0 7 3.134 7 7 0 3.866-3.134 7-7 7-3.866 0-7-3.134-7-7l-0.031-1c0-7.732 6.268-14 14-14v4c-2.671 0-5.182 1.040-7.071 2.929-0.364 0.364-0.695 0.751-0.995 1.157 0.357-0.056 0.724-0.086 1.097-0.086zM25.031 14c3.866 0 7 3.134 7 7 0 3.866-3.134 7-7 7-3.866 0-7-3.134-7-7l-0.031-1c0-7.732 6.268-14 14-14v4c-2.671 0-5.182 1.040-7.071 2.929-0.364 0.364-0.695 0.751-0.995 1.157 0.358-0.056 0.724-0.086 1.097-0.086z" fill="#ddd"/> </symbol><symbol viewBox="0 0 161.9 42.4" id="shape-site-logo"><title>site-logo</title>  <g> <g> <g> <path fill="#F69220" d="M148.6,36c0,0,0.1-0.1,0.2-0.3c0.1-0.2,0.3-0.4,0.5-0.8c0.2-0.3,0.5-0.8,0.7-1.2c0.1-0.1,0.1-0.2,0.2-0.4
                c0.1-0.1,0.1-0.3,0.2-0.4c0.1-0.3,0.3-0.6,0.4-0.9c0.1-0.3,0.3-0.6,0.4-1c0.1-0.3,0.3-0.7,0.4-1.1c0.1-0.2,0.1-0.4,0.2-0.6
                c0.1-0.2,0.1-0.4,0.2-0.6c0-0.2,0.1-0.4,0.2-0.6c0-0.2,0.1-0.4,0.1-0.6c0-0.2,0.1-0.4,0.1-0.6c0-0.2,0.1-0.4,0.1-0.6
                c0-0.2,0.1-0.4,0.1-0.6c0-0.2,0-0.4,0.1-0.7c0-0.2,0-0.4,0.1-0.7c0-0.2,0-0.4,0-0.7c0-0.2,0-0.4,0-0.7l0-0.7c0-0.2,0-0.4,0-0.7
                l0-0.7c0-0.4-0.1-0.9-0.1-1.3c-0.1-0.9-0.3-1.7-0.5-2.5c-0.1-0.4-0.2-0.8-0.3-1.2c-0.1-0.4-0.3-0.8-0.4-1.1
                c-0.1-0.4-0.3-0.7-0.4-1c-0.1-0.2-0.1-0.3-0.2-0.5c-0.1-0.2-0.2-0.3-0.2-0.5c-0.3-0.6-0.6-1.2-0.9-1.6c-0.3-0.5-0.5-0.9-0.7-1.2
                c-0.5-0.7-0.7-1-0.7-1s0.3,0.3,0.8,0.9c0.2,0.3,0.6,0.7,0.9,1.1c0.2,0.2,0.3,0.5,0.5,0.7c0.1,0.1,0.2,0.3,0.3,0.4
                c0.1,0.1,0.2,0.3,0.3,0.4c0.1,0.1,0.2,0.3,0.3,0.5c0.1,0.2,0.2,0.3,0.3,0.5c0.2,0.3,0.3,0.7,0.5,1c0.3,0.7,0.6,1.5,0.9,2.4
                c0.1,0.4,0.3,0.8,0.3,1.3c0.1,0.4,0.2,0.9,0.3,1.3c0.1,0.5,0.1,0.9,0.2,1.4l0.1,0.7c0,0.2,0,0.5,0,0.7l0,0.7c0,0.2,0,0.5,0,0.7
                c0,0.2,0,0.5,0,0.7c0,0.2-0.1,0.5-0.1,0.7c0,0.2-0.1,0.5-0.1,0.7c0,0.2-0.1,0.4-0.1,0.7c0,0.2-0.1,0.4-0.1,0.7
                c-0.1,0.2-0.1,0.4-0.2,0.6c-0.1,0.2-0.1,0.4-0.2,0.6c-0.1,0.2-0.1,0.4-0.2,0.6c-0.1,0.2-0.1,0.4-0.2,0.6
                c-0.1,0.2-0.1,0.4-0.2,0.6c-0.1,0.4-0.3,0.7-0.5,1.1c-0.2,0.3-0.3,0.7-0.5,1c-0.2,0.3-0.3,0.6-0.5,0.9c-0.1,0.1-0.2,0.3-0.2,0.4
                c-0.1,0.1-0.2,0.2-0.2,0.4c-0.3,0.5-0.6,0.9-0.9,1.2c-0.2,0.3-0.5,0.5-0.6,0.7C148.7,35.9,148.6,36,148.6,36z"/> </g> <g> <path fill="#F69220" d="M153.8,42.4c0,0,0.1-0.1,0.3-0.4c0.2-0.3,0.5-0.7,0.9-1.2c0.2-0.3,0.4-0.5,0.6-0.9
                c0.2-0.3,0.4-0.7,0.7-1.1c0.2-0.4,0.5-0.8,0.7-1.2c0.2-0.4,0.5-0.9,0.7-1.4c0.2-0.5,0.5-1,0.7-1.6c0.1-0.3,0.2-0.6,0.3-0.8
                c0.1-0.1,0.1-0.3,0.2-0.4c0.1-0.1,0.1-0.3,0.2-0.4c0.1-0.3,0.2-0.6,0.3-0.9l0-0.1l0-0.1l0.1-0.2c0-0.2,0.1-0.3,0.1-0.5
                c0.1-0.3,0.2-0.6,0.3-1c0-0.2,0.1-0.3,0.1-0.5c0-0.2,0.1-0.3,0.1-0.5c0.1-0.3,0.1-0.7,0.2-1c0.1-0.3,0.1-0.7,0.2-1
                c0-0.3,0.1-0.7,0.1-1c0-0.4,0.1-0.7,0.1-1.1c0-0.4,0-0.7,0.1-1.1l0-0.5l0-0.3l0-0.3c0-0.4,0-0.7,0-1.1l0-0.5l0-0.3l0-0.3
                l-0.1-1.1c0-0.4,0-0.7-0.1-1.1c-0.1-0.4-0.1-0.7-0.2-1.1c-0.1-0.4-0.1-0.7-0.2-1.1c-0.1-0.3-0.2-0.7-0.2-1
                c-0.1-0.3-0.1-0.7-0.2-1c-0.1-0.3-0.2-0.7-0.3-1c0-0.2-0.1-0.3-0.1-0.5l-0.1-0.2l-0.1-0.2c-0.2-0.6-0.5-1.3-0.7-1.9
                c-0.3-0.6-0.5-1.2-0.8-1.8c-0.3-0.6-0.6-1.1-0.9-1.6c-0.1-0.1-0.1-0.3-0.2-0.4c-0.1-0.1-0.2-0.2-0.2-0.4
                c-0.2-0.2-0.3-0.5-0.4-0.7c-0.1-0.2-0.3-0.5-0.4-0.7c-0.2-0.2-0.3-0.4-0.4-0.6c-0.3-0.4-0.6-0.8-0.8-1.2
                c-0.6-0.7-1.1-1.3-1.5-1.8C152,0.5,151.5,0,151.5,0s0.1,0.1,0.4,0.3c0.3,0.2,0.6,0.6,1.1,1c0.5,0.4,1,1,1.6,1.7
                c0.3,0.3,0.6,0.7,0.9,1.1c0.2,0.2,0.3,0.4,0.5,0.6c0.2,0.2,0.3,0.4,0.5,0.7c0.2,0.2,0.3,0.5,0.5,0.7c0.1,0.1,0.2,0.2,0.3,0.4
                c0.1,0.1,0.2,0.3,0.2,0.4c0.3,0.5,0.6,1.1,0.9,1.6c0.3,0.6,0.6,1.2,0.9,1.8c0.3,0.6,0.5,1.3,0.8,1.9l0.1,0.2l0.1,0.3
                c0.1,0.2,0.1,0.3,0.2,0.5c0.1,0.3,0.2,0.7,0.3,1c0.1,0.3,0.2,0.7,0.3,1.1c0.1,0.4,0.2,0.7,0.3,1.1c0.1,0.4,0.1,0.7,0.2,1.1
                c0.1,0.4,0.1,0.7,0.2,1.1c0.1,0.4,0.1,0.7,0.1,1.1l0.1,1.1l0,0.3l0,0.3l0,0.6c0,0.4,0,0.7,0,1.1l0,0.3l0,0.3l0,0.6
                c0,0.4-0.1,0.7-0.1,1.1c0,0.4-0.1,0.7-0.1,1.1c-0.1,0.4-0.1,0.7-0.2,1.1c0,0.4-0.1,0.7-0.2,1.1c-0.1,0.3-0.2,0.7-0.2,1
                c0,0.2-0.1,0.3-0.1,0.5c0,0.2-0.1,0.3-0.1,0.5c-0.1,0.3-0.2,0.6-0.3,1c-0.1,0.2-0.1,0.3-0.2,0.5l-0.1,0.2l0,0.1l0,0.1
                c-0.1,0.3-0.2,0.6-0.4,0.9c-0.1,0.1-0.1,0.3-0.2,0.4c-0.1,0.1-0.1,0.3-0.2,0.4c-0.1,0.3-0.3,0.6-0.4,0.8
                c-0.3,0.5-0.5,1.1-0.8,1.5c-0.3,0.5-0.5,0.9-0.8,1.4c-0.3,0.4-0.5,0.8-0.8,1.2c-0.3,0.4-0.5,0.7-0.8,1c-0.2,0.3-0.5,0.6-0.7,0.8
                c-0.4,0.5-0.8,0.9-1,1.1C153.9,42.3,153.8,42.4,153.8,42.4z"/> </g> </g> <g> <g> <path fill="#F69220" d="M143,29c0,0,0,0,0.1-0.1c0.1-0.1,0.1-0.2,0.2-0.3c0.1-0.2,0.2-0.3,0.3-0.5c0-0.1,0.1-0.1,0.1-0.2
                c0-0.1,0.1-0.1,0.1-0.2c0.1-0.1,0.1-0.2,0.2-0.4c0.1-0.1,0.1-0.3,0.2-0.4c0.1-0.2,0.1-0.3,0.2-0.5c0-0.1,0.1-0.2,0.1-0.2
                c0-0.1,0.1-0.2,0.1-0.3c0-0.1,0.1-0.2,0.1-0.3c0-0.1,0-0.2,0.1-0.3c0-0.1,0-0.2,0.1-0.3c0-0.1,0-0.2,0.1-0.3c0-0.1,0-0.2,0.1-0.3
                c0-0.1,0-0.2,0-0.3c0-0.1,0-0.2,0-0.3c0-0.1,0-0.2,0-0.3c0-0.1,0-0.2,0-0.3l0-0.3c0-0.1,0-0.2,0-0.3l0-0.3c0-0.2,0-0.4,0-0.6
                c0-0.4-0.1-0.8-0.2-1.1c0-0.2-0.1-0.4-0.1-0.5c0-0.2-0.1-0.3-0.2-0.5c0-0.2-0.1-0.3-0.2-0.5c0-0.1-0.1-0.2-0.1-0.2
                c0-0.1-0.1-0.1-0.1-0.2c-0.1-0.3-0.3-0.5-0.4-0.7c-0.1-0.2-0.2-0.4-0.3-0.6c-0.2-0.3-0.3-0.5-0.3-0.5s0.1,0.2,0.4,0.4
                c0.1,0.1,0.2,0.3,0.4,0.5c0.1,0.1,0.1,0.2,0.2,0.3c0,0.1,0.1,0.1,0.1,0.2c0,0.1,0.1,0.1,0.1,0.2c0,0.1,0.1,0.1,0.1,0.2
                c0,0.1,0.1,0.1,0.1,0.2c0.1,0.2,0.1,0.3,0.2,0.5c0.1,0.3,0.3,0.7,0.4,1.1c0,0.2,0.1,0.4,0.1,0.6c0,0.2,0.1,0.4,0.1,0.6
                c0,0.2,0.1,0.4,0.1,0.6l0,0.3c0,0.1,0,0.2,0,0.3l0,0.3c0,0.1,0,0.2,0,0.3c0,0.1,0,0.2,0,0.3c0,0.1,0,0.2,0,0.3c0,0.1,0,0.2,0,0.3
                c0,0.1,0,0.2-0.1,0.3c0,0.1,0,0.2-0.1,0.3c0,0.1-0.1,0.2-0.1,0.3c0,0.1-0.1,0.2-0.1,0.3c0,0.1-0.1,0.2-0.1,0.3
                c0,0.1-0.1,0.2-0.1,0.3c0,0.1-0.1,0.2-0.1,0.2c-0.1,0.2-0.1,0.3-0.2,0.5c-0.1,0.2-0.2,0.3-0.2,0.4c-0.1,0.1-0.2,0.3-0.2,0.4
                c0,0.1-0.1,0.1-0.1,0.2c0,0.1-0.1,0.1-0.1,0.2c-0.1,0.2-0.3,0.4-0.4,0.5c-0.1,0.1-0.2,0.2-0.3,0.3C143,29,143,29,143,29z"/> </g> </g> </g> <g> <g> <path fill="#F69220" d="M12.3,29.1v-9.9l-4,9.9H7l-4-9.9v9.9H0V15h4.2l3.4,8.5l3.4-8.5h4.2v14.1H12.3z"/> <path fill="#F69220" d="M21.6,29.1V17.7h-4.1V15h11.3v2.6h-4.1v11.5H21.6z"/> <path fill="#F69220" d="M40.7,29.1l-6.7-9.2v9.2h-3V15H34l6.5,8.9V15h3v14.1H40.7z"/> <path fill="#FFFFFF" d="M58.9,29.1v-9.9l-4,9.9h-1.3l-4-9.9v9.9h-3V15h4.2l3.4,8.5l3.4-8.5h4.2v14.1H58.9z"/> <path fill="#FFFFFF" d="M65,29.1V15h10v2.6h-7v3h6.8v2.6H68v3.2h7v2.6H65z"/> <path fill="#FFFFFF" d="M77.6,29.1V15h3v14.1H77.6z"/> <path fill="#FFFFFF" d="M82.7,27.1l1.6-2.3c1,1,2.5,1.9,4.5,1.9c1.7,0,2.5-0.8,2.5-1.6c0-2.5-8.1-0.8-8.1-6.1c0-2.4,2-4.3,5.4-4.3
            c2.2,0,4.1,0.7,5.5,2L92.3,19c-1.1-1.1-2.7-1.5-4.1-1.5c-1.3,0-2,0.6-2,1.4c0,2.2,8.1,0.7,8.1,6c0,2.6-1.8,4.5-5.7,4.5
            C86,29.4,84,28.5,82.7,27.1z"/> <path fill="#FFFFFF" d="M99.6,29.1V17.7h-4.1V15h11.3v2.6h-4.1v11.5H99.6z"/> <path fill="#FFFFFF" d="M108.9,29.1V15h10v2.6h-7v3h6.8v2.6h-6.8v3.2h7v2.6H108.9z"/> <path fill="#FFFFFF" d="M129.5,29.1l-2.8-5h-2.2v5h-3V15h6.6c2.9,0,4.7,1.9,4.7,4.6c0,2.5-1.6,3.8-3.1,4.2l3.2,5.4H129.5z
             M129.8,19.6c0-1.2-0.9-1.9-2.1-1.9h-3.2v3.8h3.2C128.9,21.5,129.8,20.8,129.8,19.6z"/> </g> </g> </symbol><symbol viewBox="0 0 32 32" id="shape-twitter"><title>twitter</title>  <path d="M32 6.076c-1.177 0.522-2.443 0.875-3.771 1.034 1.355-0.813 2.396-2.099 2.887-3.632-1.269 0.752-2.674 1.299-4.169 1.593-1.198-1.276-2.904-2.073-4.792-2.073-3.626 0-6.565 2.939-6.565 6.565 0 0.515 0.058 1.016 0.17 1.496-5.456-0.274-10.294-2.888-13.532-6.86-0.565 0.97-0.889 2.097-0.889 3.301 0 2.278 1.159 4.287 2.921 5.465-1.076-0.034-2.088-0.329-2.974-0.821-0.001 0.027-0.001 0.055-0.001 0.083 0 3.181 2.263 5.834 5.266 6.437-0.551 0.15-1.131 0.23-1.73 0.23-0.423 0-0.834-0.041-1.235-0.118 0.835 2.608 3.26 4.506 6.133 4.559-2.247 1.761-5.078 2.81-8.154 2.81-0.53 0-1.052-0.031-1.566-0.092 2.905 1.863 6.356 2.95 10.064 2.95 12.076 0 18.679-10.004 18.679-18.68 0-0.285-0.006-0.568-0.019-0.849 1.283-0.926 2.396-2.082 3.276-3.398z"/> </symbol></svg>