<svg viewBox="0 0 100 100" xmlns="http://www.w3.org/2000/svg"><symbol viewBox="0 0 20 20" id="shape-arrow-left"><title>arrow-left</title><path d="M14 5.4v9.2L6 10z"/></symbol><symbol viewBox="0 0 20 20" id="shape-arrow-right"><title>arrow-right</title><path d="M6 5.4v9.2l8-4.6z" fill="#F8992F"/></symbol><symbol viewBox="0 0 32 32" id="shape-facebook"><title>facebook</title><path d="M26.667 0H5.334C2.4 0 0 2.4 0 5.334v21.332C0 29.602 2.4 32 5.334 32h21.333C29.6 32 32 29.602 32 26.666V5.334C32 2.4 29.6 0 26.667 0zm.54 16H22v14h-6V16h-2.89v-4.58H16V8.445C16 4.403 17.744 2 22.496 2h5.476v4.955H23.5c-1.33-.002-1.493.692-1.493 1.985L22 11.42h6L27.206 16z"/></symbol><symbol viewBox="0 0 32 32" id="shape-feed2"><title>feed2</title><path d="M4.26 23.467C1.91 23.467 0 25.384 0 27.72c0 2.348 1.91 4.243 4.26 4.243 2.357 0 4.264-1.895 4.264-4.244 0-2.337-1.907-4.253-4.265-4.253zM.004 10.873v6.133c3.993 0 7.75 1.562 10.577 4.39 2.825 2.823 4.384 6.596 4.384 10.604h6.16c0-11.65-9.478-21.127-21.12-21.127zM.012 0v6.136C14.255 6.136 25.848 17.74 25.848 32H32C32 14.36 17.648 0 .012 0z"/></symbol><symbol viewBox="0 0 32 32" id="shape-github"><title>github</title><path d="M16 0C7.163 0 0 7.163 0 16s7.163 16 16 16 16-7.163 16-16S24.837 0 16 0zm9.502 25.502c-1.235 1.235-2.672 2.204-4.272 2.88-.406.173-.82.324-1.238.454v-2.398c0-1.26-.432-2.188-1.297-2.78.542-.053 1.04-.126 1.492-.22s.932-.23 1.438-.406.958-.388 1.36-.633.785-.564 1.155-.954.68-.833.93-1.328.448-1.09.594-1.78.22-1.457.22-2.29c0-1.615-.527-2.99-1.58-4.125.48-1.25.428-2.61-.155-4.078l-.392-.047c-.27-.03-.758.083-1.46.344s-1.493.688-2.368 1.28c-1.24-.343-2.526-.515-3.86-.515-1.343 0-2.624.172-3.843.516-.552-.375-1.075-.685-1.57-.93s-.89-.41-1.188-.5-.574-.143-.83-.164-.418-.027-.49-.017-.126.02-.157.03c-.583 1.48-.635 2.84-.156 4.08-1.052 1.134-1.578 2.51-1.578 4.124 0 .833.072 1.596.218 2.29s.344 1.285.594 1.78.56.938.93 1.328.755.708 1.156.953.854.456 1.36.633.983.314 1.437.407.95.167 1.492.22c-.854.582-1.28 1.51-1.28 2.78v2.445c-.473-.14-.938-.306-1.395-.5-1.6-.677-3.037-1.646-4.272-2.88s-2.204-2.673-2.88-4.273c-.7-1.656-1.056-3.415-1.056-5.23s.355-3.576 1.055-5.23c.676-1.6 1.645-3.038 2.88-4.273s2.672-2.204 4.272-2.88c1.655-.7 3.415-1.056 5.23-1.056s3.575.356 5.23 1.056c1.6.677 3.037 1.646 4.272 2.88s2.204 2.673 2.88 4.273c.7 1.654 1.056 3.414 1.056 5.23s-.355 3.574-1.055 5.23c-.677 1.6-1.646 3.036-2.88 4.27z"/></symbol><symbol viewBox="0 0 32 32" id="shape-googleplus"><title>googleplus</title><path d="M13.656 25.568c0 2.346-1.45 4.2-5.555 4.35-2.405-1.37-4.42-3.343-5.84-5.716.74-1.828 3.053-3.22 5.697-3.19.75.007 1.45.128 2.086.333 1.747 1.215 3.156 1.974 3.51 3.358.066.28.103.57.103.864zM16 0C11.377 0 7.213 1.962 4.292 5.097c1.154-.64 2.517-1.02 3.966-1.02h8.014l-1.79 1.88h-2.104c1.484.85 2.274 2.6 2.274 4.53 0 1.773-.982 3.2-2.368 4.284-1.352 1.057-1.61 1.5-1.61 2.4 0 .766 1.617 1.908 2.36 2.466 2.588 1.94 3.112 3.162 3.112 5.59 0 2.46-2.154 4.91-5.808 5.742 1.76.667 3.67 1.033 5.664 1.033 8.837 0 16-7.162 16-16s-7.163-16-16-16zm8 12v4h-2v-4h-4v-2h4V6h2v4h4v2h-4zm-12.57-1.392c.373 2.837-.87 4.662-3.03 4.598-2.16-.065-4.212-2.047-4.585-4.883C3.442 7.486 4.89 5.315 7.05 5.38s4.007 2.39 4.38 5.227zm-4.527 9.457c-2.334 0-4.316.805-5.714 1.996C.422 20.193 0 18.147 0 16c0-1.773.29-3.48.822-5.074.23 3.108 2.417 5.506 6.03 5.506.266 0 .524-.014.777-.032-.25.476-.427 1.006-.427 1.562 0 .937.515 1.47 1.152 2.09-.48 0-.946.013-1.454.013z"/></symbol><symbol viewBox="0 0 32 32" id="shape-headphones"><title>headphones</title><path d="M6 18.07V31.93c.327.047.66.07 1 .07h1V18H7c-.34 0-.673.026-1 .072zM24 18v14h1c.34 0 .673-.025 1-.07V18.07c-.327-.047-.66-.07-1-.07h-1zm8-2c0-8.837-7.163-16-16-16S0 7.163 0 16c0 1.92.338 3.76.958 5.465C.348 22.503 0 23.71 0 25c0 2.792 1.635 5.202 4 6.326V18.674c-.63.3-1.206.69-1.714 1.153C2.1 18.914 2 17.967 2 17 2 9.268 8.268 3 16 3s14 6.268 14 14c0 .97-.098 1.914-.286 2.827-.51-.464-1.085-.854-1.714-1.153v12.652c2.365-1.124 4-3.534 4-6.326 0-1.29-.35-2.498-.958-3.535C31.662 19.76 32 17.92 32 16z"/></symbol><symbol viewBox="0 0 32 32" id="shape-instagram"><title>instagram</title><path d="M26.688 0H5.313C2.39 0 0 2.39 0 5.313v21.375C0 29.61 2.39 32 5.313 32h21.375C29.61 32 32 29.61 32 26.69V5.313C32 2.39 29.61 0 26.69 0zM10.244 14h11.513c.218.627.337 1.3.337 2 0 3.36-2.734 6.094-6.094 6.094S9.906 19.36 9.906 16c0-.7.12-1.373.338-2zM28 14.002V26c0 1.1-.9 2-2 2H6c-1.1 0-2-.9-2-2V14h3.128c-.145.644-.222 1.313-.222 2 0 5.014 4.08 9.094 9.094 9.094s9.094-4.08 9.094-9.094c0-.687-.077-1.356-.222-2l3.128.002zM28 7c0 .55-.45 1-1 1h-2c-.55 0-1-.45-1-1V5c0-.55.45-1 1-1h2c.55 0 1 .45 1 1v2z"/></symbol><symbol viewBox="0 0 32 32" id="shape-link"><title>link</title><path d="M29.794 2.333l-.126-.126c-2.942-2.942-7.756-2.942-10.698 0l-6.816 6.817c-2.942 2.942-2.942 7.756 0 10.697l.126.127c.245.245.505.466.773.67l2.495-2.494c-.29-.172-.566-.377-.816-.627l-.126-.126c-1.597-1.597-1.597-4.196 0-5.793l6.816-6.816c1.597-1.596 4.196-1.596 5.793 0l.126.127c1.598 1.597 1.598 4.197 0 5.793l-3.083 3.084c.535 1.322.79 2.73.767 4.137l4.77-4.768c2.94-2.942 2.94-7.756 0-10.697zm-10.074 9.82c-.245-.244-.505-.465-.773-.67l-2.495 2.496c.29.17.566.376.816.626l.126.126c1.597 1.597 1.597 4.196 0 5.793l-6.817 6.817c-1.597 1.597-4.196 1.597-5.793 0l-.126-.126c-1.597-1.598-1.597-4.196 0-5.793l3.084-3.084c-.535-1.323-.79-2.732-.767-4.138l-4.77 4.77c-2.94 2.94-2.94 7.755 0 10.697l.127.125c2.942 2.942 7.756 2.942 10.698 0l6.816-6.816c2.942-2.943 2.942-7.757 0-10.7l-.126-.125z"/></symbol><symbol viewBox="0 0 162.6 44" id="shape-logo"><title>logo</title><g fill="#FFF" opacity=".36"><path d="M12.3 30.6v-9.9l-4 9.9H7l-4-9.9v9.9H0V16.4h4.2L7.6 25l3.4-8.5h4.2v14.1h-2.9zM21.6 30.6V19.1h-4.1v-2.6h11.3v2.6h-4.1v11.5h-3.1zM40.7 30.6L34 21.4v9.2h-3V16.4h3l6.5 8.9v-8.9h3v14.1h-2.8zM59.9 30.6v-9.9l-4 9.9h-1.3l-4-9.9v9.9h-3V16.4h4.2l3.4 8.5 3.4-8.5h4.2v14.1h-2.9zM66 30.6V16.4h10V19h-7v3h6.8v2.6H69v3.2h7v2.6H66zM78.6 30.6V16.4h3v14.1h-3zM83.7 28.6l1.6-2.3c1 1 2.5 1.9 4.5 1.9 1.7 0 2.5-.8 2.5-1.6 0-2.5-8.1-.8-8.1-6.1 0-2.4 2-4.3 5.4-4.3 2.2 0 4.1.7 5.5 2l-1.7 2.2c-1.1-1.1-2.7-1.5-4.1-1.5-1.3 0-2 .6-2 1.4 0 2.2 8.1.7 8.1 6 0 2.6-1.8 4.5-5.7 4.5-2.7 0-4.7-.9-6-2.2zM100.6 30.6V19.1h-4.1v-2.6h11.3v2.6h-4.1v11.5h-3.1zM109.9 30.6V16.4h10V19h-7v3h6.8v2.6h-6.8v3.2h7v2.6h-10zM130.5 30.6l-2.8-5h-2.2v5h-3V16.4h6.6c2.9 0 4.7 1.9 4.7 4.6 0 2.5-1.6 3.8-3.1 4.2l3.2 5.4h-3.4zm.3-9.6c0-1.2-.9-1.9-2.1-1.9h-3.2v3.8h3.2c1.2 0 2.1-.7 2.1-1.9z"/></g><path fill="#f8992f" d="M148.9 37.3c5.8-8.5 5.6-19.6-.4-27.9 7.3 7.7 7.4 19.9.4 27.9z"/><path fill="#f8992f" d="M154.3 44c10.6-13 9.5-32.1-2.4-44 13.2 11 14.3 31.7 2.4 44z"/><g><path fill="#f8992f" d="M143 30.1c2.6-4 2.6-8.4.1-12.4 3.1 4 3.1 8.4-.1 12.4z"/></g></symbol><symbol viewBox="0 0 20 20" id="shape-megaphone"><title>megaphone</title><path d="M17.223 7.03C15.64 3.344 13.09.54 11.803 1.063c-2.19.89 1.303 5.164-9.448 9.533-.93.38-1.164 1.888-.775 2.792.388.902 1.658 1.8 2.587 1.424.16-.066.75-.256.75-.256.664.89 1.358.363 1.605.928l1.158 2.66s.715.967 1.075.83l2.05-.78s.58-.595.436-.923c-.153-.354-.785-.458-.966-.872-.18-.412-.77-1.738-.938-2.156-.23-.568.26-1.03.97-1.104 4.894-.512 5.81 2.512 7.475 1.834 1.288-.525 1.026-4.26-.557-7.942zm-.55 5.976c-.288.115-2.214-1.402-3.444-4.267-1.232-2.864-1.077-5.48-.79-5.598.285-.115 2.164 1.717 3.394 4.58s1.124 5.167.838 5.284z"/></symbol><symbol viewBox="0 0 32 32" id="shape-movie"><title>movie</title><path d="M27.977 8h-3.95L28 4.016 24.074 0h-5.566l3.988 3.984L18.41 8h-4.723l4.06-3.984L13.733 0H8.078l3.984 3.984L7.977 8H3.97l4.06-3.984L4.017 0H0v32h32V0h-3.922L32 4l-4.023 4zM28 28H4v-4h24v4zm0-8H4v-4h24v4z"/></symbol><symbol viewBox="-438 0 1101.5 340.7" id="shape-mtns-wide"><title>mtns-wide</title><path fill="#f8992f" d="M535.9 127.6c-5.6-29.2-28.5-51.5-58-56.3 30.8.9 56.1 25.7 58 56.3zM560.6 130.3c-4.9-48.5-46.1-85.2-94.9-85.1 49.5-4.5 94.2 35.4 94.9 85.1zM509.2 124.9c-2.7-13.5-11.7-22.6-25.2-25.7 14.5 2 23.6 11.2 25.2 25.7z"/><g><path fill="#043f7e" d="M-438 326.2v49.4l1112-.6V256l-44-30v9.5L581.1 186s.8 6.2-2.8 11c-13.3 17.9 2.1 17.2 1.4 21.5-.4 2.1-7.7 8.5-17.7 14.8l-9.5-12c3.8-3.7 6.5-6.6 6.8-7.5 1.4-5 11.2-18.1 9.8-19.1l-23.4 17.9-81.6-86c-.5-.6-.6 31.7-5.4 41.3-3.9 7.9-1.7 10.6 3.2 24.1 3.9 10.7 9.2 25.6 16 31.6v-.1c-3.4-8.3-.2-.5 0 0 0 .1.1.2.1.2 3.7 9-10.7 14.3-2.4 21.6 8.3 7.4-10.2 37.8-11.4 40.2-.1.2-2-32.5-8.3-35.2-18.2-7.7-21.8-1.7-23.1-6.4-1.3-4.7 2.4-3.6 5.3-6.6 4.2-4.4 3.5-34.4 3.1-54.1 0-1-1.3-1.6-2-.9-6.1 5.9-4.7 15.1-10.6 25.7-6.8 12.3-36.3 35.6-34.8 57.9.9 14.5.2 24.6-6.1 34.1-.6 1-2.2.6-2.2-.6 0-7.2.2-23.5.2-31.4 0-1.3-1.6-1.7-2.2-.6-3.1 5.3-73.1 37.5-63 27.4 10.1-10.1 12-21.7 12-21.7 14.7-11.6 22.9-24.1 36.7-32.3 10.5-6.3 16.5-4.8 22.5-14.9 5.8-9.9 4.4-17.7 12-27.8 3-3.9 46.1-54.3 46.6-61.8-30.2 32.6-112.4 115.9-128.6 132L320 270c-14.5-11-50.9-33.9-50.9-33.9s17.9 29.2 19.7 31.7c4.8 6.4 3.9-4.3 7.6 2 1.5 2.5 3 3.9 4.6 4.9-3.2 3.2-7.2 7.2-10.9 10.8-6.2-4.2-14.6-6.6-17.2-11.3-3.8-6.8.3-3.9-3.6-7.7-.5-.5-1.3-.1-1.3.6-.2 12.6-28.9 22.8-26.6 17.1 0-.1 0-.1.1-.2.1-.3 2.2-5.3 0 0 4.3-3.9 7.7-13.3 10.1-20.1 3.1-8.6 9.6-10.4 7.1-15.4-3.1-6.1.3-21.7.1-21.3l-70.1 66L173 283c-.9.7 5.2 11.9 6.1 15.1.2.6 1.9 2.4 4.3 4.8l-6.1 7.6c-6.4-4-11.1-8-11.3-9.4-.5-2.8 9.4-2.3.9-13.7-2.3-3.1-1.7-7-1.7-7l-33.8 30-74.9-8.1S-43.1 316.4-62 320.7l-199-6.7-177 12.2z"/></g><path fill-rule="evenodd" clip-rule="evenodd" fill="#043f7e" d="M-371.7 300c.7-1.7.3.2.9-1.7.5-1.7-.5-.6.8-1.5-1.8-.4-.9-2.2-3.8-.6-.5 2 .3 1.6.4 3.5-1.9-1-.4-1.4-1.4-3.2-3.7.5-1.3.9-2.5 3.2-1.9 3.8-.4 4-.2 5.4v.7c.1 1.6.5 1.8 2.2 2.1.1 2.7.5 1.6 0 4.1-.4 1.9.2 2-1.2 3.7-.9 1.2-1 2.3-1.8 3.4-.7 1-1.6 1.1-2.4 2.5 1 1.2 2.8 1.8 4.3 1.7-.8-1.6-.6-.2-1.1-1.3-.7-1.5 1.1-3.3 1.8-4.1 2.6-3.2 3.1-4.2 4.3-3.2 1.1.9.4.5.4 2.1 0 1.5.2 1 .5 2.2.8 3-1.4 4.3 2.2 4.1l2.3-.5c-.5-.8 0-.2-.8-.6-3-1.6-1.8-2.2-2.2-7.1-.2-2.2.1-1.8-.8-4.1-.3-.9-.9-3.3-.8-4.4l4.1-1 2.8 17.7c.4-1.6-1-9.2-1.4-11.6-.2-1.7-.8-4.2-.7-5.9.1-1.4-.7-4.2-1-4.7-1.3 1.9 2.1 3.8-3.5 3.7-.6-1.6-.5-3.1-1.4-4.6z"/></symbol><symbol viewBox="0 0 663.5 340.7" id="shape-mtns"><title>mtns</title><path fill="#043F7E" d="M560 115.9s1 7.9-3.5 14c-16.9 22.8 2.7 21.9 1.8 27.4-.5 2.7-9.8 10.8-22.5 18.8l-12.1-15.2c4.8-4.7 8.3-8.4 8.6-9.5 1.8-6.3 14.3-23 12.4-24.3L515 149.9l-90.8-99.4c-.6-.7 6.2 30.3.1 42.5-5 10.1 7.8 13.5 14.1 30.7 5 13.6 11.7 32.5 20.3 40.2v-.1c-4.3-10.5-.2-.6 0 0 0 .1.1.2.1.3 4.7 11.4-13.6 18.2-3 27.5 10.6 9.4-13 48.1-14.5 51.1-.1.2-2.6-41.3-10.6-44.7-23.2-9.8-27.7-2.1-29.4-8.1-1.7-6 3.1-4.6 6.7-8.4 5.3-5.6 4.5-43.8 4-68.8 0-1.3-1.6-2-2.6-1.1-7.8 7.5-6 19.2-13.5 32.7-8.7 15.7-46.1 45.3-44.3 73.6 1.2 18.5.2 31.3-7.7 43.4-.8 1.3-2.8.7-2.8-.8 0-9.2.2-29.9.3-39.9 0-1.6-2-2.1-2.8-.8-3.9 6.7-92.9 47.7-80.1 34.9 12.8-12.8 15.3-27.6 15.3-27.6 18.7-14.8 29.1-30.6 46.7-41.1 13.4-8 21-6.1 28.6-19 7.4-12.6 5.6-22.5 15.3-35.4 3.8-5 38.6-49 39.3-58.6-38.4 41.4-120.9 127.4-141.5 147.9l-2.1 2.1c-18.4-14-31.4-23.7-46.7-40.1.5 6.1 22.7 34.1 25.1 37.3 6.1 8.2 5-5.5 9.7 2.6 1.9 3.2 3.8 5 5.9 6.2-4.1 4.1-9.1 9.1-13.9 13.7-7.9-5.3-18.6-8.4-21.9-14.4-4.8-8.6.4-5-4.6-9.8-.6-.6-1.6-.1-1.7.7-.3 16-36.8 29-33.8 21.8 0-.1 0-.1.1-.2.1-.4 2.8-6.7 0 0 5.5-4.9 9.8-16.9 12.9-25.6 4-11 12.2-13.2 9-19.6-3.9-7.8.4-27.6.1-27.1l-69.1 83.9-20.2-13.3c-1.2.9 6.6 15.1 7.8 19.2.2.7 2.4 3 5.5 6.1l-7.7 9.7c-8.1-5.1-14.1-10.2-14.4-12-.6-3.5 11.9-2.9 1.2-17.4-2.9-3.9-2.2-8.9-2.2-8.9L0 340.7h663.5V220.6L560 115.9z"/><path fill="#F69220" d="M531 79.6s-.1-.3-.2-.9c-.1-.6-.3-1.5-.6-2.6s-.6-2.5-1.1-4c-.1-.4-.2-.8-.4-1.2-.1-.4-.3-.8-.4-1.2-.3-.8-.6-1.7-1-2.6-.4-.9-.7-1.9-1.2-2.8-.4-1-.9-2-1.4-2.9-.3-.5-.5-1-.8-1.5l-.9-1.5c-.3-.5-.6-1.1-.9-1.5-.3-.5-.7-1-1-1.6-.3-.5-.7-1-1-1.6-.4-.5-.7-1-1.1-1.5-.4-.5-.7-1-1.1-1.5l-1.2-1.5-1.2-1.5c-.4-.5-.9-.9-1.3-1.4-.4-.5-.9-1-1.3-1.4l-1.4-1.3c-.5-.4-.9-.9-1.4-1.3l-1.4-1.3c-.9-.9-2-1.6-3-2.4-2-1.5-4.1-2.9-6.2-4.2-1-.7-2.1-1.2-3.1-1.7-1-.6-2.1-1-3.1-1.5s-2-.9-3-1.3c-.5-.2-1-.4-1.4-.6-.5-.2-.9-.3-1.4-.5-1.8-.7-3.6-1.2-5.1-1.6-1.5-.4-2.9-.7-4-1-2.3-.4-3.6-.7-3.6-.7s1.3 0 3.6.2c1.1.1 2.6.3 4.1.5.8.1 1.6.3 2.5.5.5.1.9.2 1.4.3.5.1.9.2 1.4.4.5.1 1 .3 1.5.4.5.2 1 .3 1.5.5 1 .3 2.1.7 3.1 1.1 2.1.8 4.4 1.8 6.6 3.1 1.1.6 2.2 1.2 3.3 1.9 1.1.7 2.2 1.4 3.2 2.2 1.1.8 2.1 1.6 3.1 2.5l1.5 1.3c.5.4 1 .9 1.5 1.4l1.4 1.4c.5.5.9 1 1.3 1.5s.9 1 1.3 1.5.8 1 1.2 1.6c.4.5.8 1 1.2 1.6.4.5.7 1.1 1.1 1.6.4.5.7 1.1 1.1 1.6.3.5.6 1.1.9 1.6.3.5.6 1.1.9 1.6.3.6.6 1.1.9 1.7.3.5.5 1.1.8 1.6.2.5.5 1.1.7 1.6.5 1 .9 2.1 1.2 3.1.4 1 .7 2 1 3 .3.9.5 1.9.8 2.8.1.4.2.9.3 1.3.1.4.2.8.2 1.2.3 1.6.5 3 .6 4.1.2 1.1.2 2.1.2 2.7.8.4.8.7.8.7zM554.8 82.3s-.1-.5-.2-1.5-.3-2.5-.6-4.3c-.2-.9-.3-1.9-.5-3s-.5-2.3-.8-3.5c-.3-1.3-.7-2.6-1-4-.4-1.4-.9-2.8-1.3-4.3-.5-1.5-1.1-3-1.7-4.6-.3-.8-.7-1.6-1-2.4-.2-.4-.3-.8-.5-1.2l-.6-1.2c-.4-.8-.8-1.6-1.2-2.5l-.2-.3-.2-.3-.3-.6c-.2-.4-.5-.8-.7-1.2-.5-.8-.9-1.7-1.4-2.5-.2-.4-.5-.9-.7-1.3-.3-.4-.5-.8-.8-1.2-.5-.8-1.1-1.6-1.6-2.5-.5-.8-1.1-1.7-1.7-2.5-.6-.8-1.2-1.6-1.9-2.4-.6-.8-1.2-1.7-1.9-2.4-.7-.8-1.4-1.5-2.1-2.3l-1-1.2-.5-.6-.6-.5-2.2-2.2-1.1-1.1-.6-.5-.6-.5-2.4-2c-.8-.7-1.6-1.4-2.4-2-.8-.6-1.7-1.2-2.5-1.9-.8-.6-1.6-1.3-2.5-1.8-.9-.5-1.7-1.1-2.6-1.6-.9-.5-1.7-1.1-2.6-1.6-.9-.5-1.8-1-2.6-1.4-.4-.2-.9-.5-1.3-.7l-.7-.4-.7-.3c-1.8-.8-3.5-1.6-5.3-2.4-1.8-.7-3.5-1.3-5.2-2-1.7-.6-3.4-1-5-1.5-.4-.1-.8-.3-1.2-.4l-1.2-.3c-.8-.2-1.6-.4-2.4-.5-.8-.2-1.5-.4-2.3-.5-.7-.1-1.5-.2-2.2-.4-1.4-.2-2.8-.5-4.1-.7-2.6-.2-4.8-.5-6.7-.6-3.7-.1-5.8-.2-5.8-.2s.5 0 1.5-.1 2.5-.1 4.3-.3c1.9 0 4.1 0 6.7.1 1.3.1 2.7.3 4.1.4.7.1 1.5.1 2.2.2.8.1 1.5.3 2.3.4.8.1 1.6.3 2.4.4.4.1.8.1 1.3.2.4.1.8.2 1.3.3 1.7.4 3.4.9 5.2 1.4l5.4 1.8c1.8.7 3.6 1.5 5.5 2.3l.7.3.7.3c.5.2.9.5 1.4.7.9.5 1.8.9 2.8 1.4.9.4 1.8 1 2.7 1.6.9.6 1.8 1.1 2.7 1.7.9.5 1.8 1.2 2.6 1.8.9.6 1.7 1.3 2.6 1.9.9.6 1.7 1.4 2.5 2l2.5 2.1.6.5.6.6 1.1 1.1 2.3 2.3.6.6.5.6 1.1 1.2 2.1 2.4c.7.8 1.3 1.7 1.9 2.5.6.8 1.2 1.7 1.9 2.5.6.8 1.2 1.7 1.7 2.6.5.9 1.1 1.7 1.6 2.6.3.4.5.9.8 1.3.3.4.5.9.7 1.3.5.9.9 1.7 1.3 2.6.2.4.4.9.7 1.3l.3.6.2.4.1.3c.4.9.8 1.7 1.1 2.6.2.4.4.8.5 1.3.2.4.3.8.5 1.3.3.8.6 1.7.9 2.5.6 1.6 1 3.3 1.5 4.8.4 1.6.8 3 1.1 4.5.3 1.4.6 2.8.8 4.1.2 1.3.4 2.5.5 3.6.1 1.1.2 2.2.3 3.1.2 1.9.2 3.3.2 4.3.3.9.3 1.5.3 1.5z"/><g><path fill="#F69220" d="M505.3 77s0-.1-.1-.4c-.1-.3-.1-.7-.2-1.2s-.2-1.1-.4-1.8c0-.2-.1-.3-.1-.5-.1-.2-.1-.4-.2-.6-.1-.4-.2-.8-.4-1.2-.2-.4-.3-.8-.5-1.3-.2-.4-.4-.9-.6-1.3-.1-.2-.2-.5-.3-.7-.1-.2-.2-.5-.4-.7-.1-.2-.2-.5-.4-.7-.1-.2-.3-.5-.4-.7-.1-.2-.3-.5-.4-.7-.2-.2-.3-.4-.5-.7-.2-.2-.3-.5-.5-.7-.2-.2-.3-.4-.5-.7-.2-.2-.3-.4-.5-.7l-.6-.6-.6-.6-.6-.6-.6-.6-.6-.6c-.4-.4-.9-.7-1.3-1.1-.9-.7-1.8-1.4-2.7-1.9-.4-.3-.9-.5-1.4-.8-.4-.3-.9-.5-1.3-.7-.4-.2-.9-.4-1.3-.6l-.6-.3c-.2-.1-.4-.2-.6-.2-.8-.3-1.6-.6-2.2-.8-.7-.2-1.3-.3-1.8-.5-1-.2-1.6-.3-1.6-.3s.6 0 1.6.1c.5.1 1.1.1 1.8.3.4.1.7.2 1.1.2.2 0 .4.1.6.2.2.1.4.1.6.2.2.1.4.1.7.2.2.1.4.2.7.2.5.2.9.3 1.4.5.9.4 1.9.9 2.9 1.4.5.3 1 .6 1.4.9.5.3 1 .6 1.4 1 .5.4.9.7 1.4 1.1l.7.6.6.6.6.6c.2.2.4.5.6.7.2.2.4.5.6.7.2.2.4.5.5.7.2.2.4.5.5.7.2.2.3.5.5.7.2.2.3.5.5.7.1.2.3.5.4.7.1.2.3.5.4.7.1.3.2.5.4.7.1.2.2.5.3.7.1.2.2.5.3.7.2.5.4.9.5 1.4.2.5.3.9.4 1.3l.3 1.2c0 .2.1.4.1.6 0 .2.1.4.1.6.1.7.2 1.3.2 1.9.1.5 0 .9.1 1.2v.8z"/></g></symbol><symbol viewBox="0 0 32 32" id="shape-mug"><title>mug</title><path d="M25.76 25.005h-2.723v2.164c0 1.545-1.378 2.797-2.924 2.797H9.805c-1.546 0-2.8-1.252-2.8-2.798v-15.1h3v14.904h1.987l.002-14.905c.534.384 1.334.67 2.008.822v14.083h1.988V12.95c.745-.123 1.428-.403 2.016-.807v14.832h1.988V12.07h5.766c1.236 0 2.24 1 2.24 2.238v8.457c0 1.237-1.003 2.24-2.24 2.24zm.23-10.995h-2.954v8.985h2.955V14.01zm-4.768-2.868c-.98 0-1.863-.39-2.517-1.02-.812 1.146-2.142 1.9-3.653 1.9-1.457 0-2.738-.706-3.557-1.783-.648.598-1.508.972-2.46.972-1.755 0-3.22-1.243-3.562-2.896-.534-.35-.887-.952-.887-1.637 0-1.083.877-1.96 1.96-1.96.08 0 .156.014.233.023.604-.48 1.358-.785 2.188-.8.373-1.107 1.408-1.91 2.64-1.91.95 0 1.785.475 2.292 1.197.368-.1.75-.162 1.15-.162.42 0 .817.07 1.2.18.505-.733 1.348-1.215 2.304-1.215 1.207 0 2.226.768 2.62 1.838.016 0 .03-.004.047-.004 2.01 0 3.64 1.63 3.64 3.638s-1.63 3.638-3.638 3.638z"/></symbol><symbol viewBox="0 0 24 32" id="shape-new-window"><title>new-window</title><path d="M20 24H4V8.06L8 8V4H0v24h24V18h-4v6zM12 4l4 4-6 6 4 4 6-6 4 4V4H12z"/></symbol><symbol viewBox="0 0 32 32" id="shape-quotes-left"><title>quotes-left</title><path d="M7.03 14c3.867 0 7 3.134 7 7s-3.133 7-7 7c-3.865 0-7-3.134-7-7L0 20C0 12.268 6.268 6 14 6v4c-2.67 0-5.182 1.04-7.07 2.93-.365.363-.696.75-.996 1.156C6.29 14.03 6.658 14 7.03 14zm18 0c3.867 0 7 3.134 7 7s-3.133 7-7 7c-3.865 0-7-3.134-7-7L18 20c0-7.732 6.268-14 14-14v4c-2.67 0-5.182 1.04-7.07 2.93-.365.363-.696.75-.996 1.156.358-.056.724-.086 1.097-.086z" fill="#ddd"/></symbol><symbol viewBox="0 0 161.9 42.4" id="shape-site-logo"><title>site-logo</title><path fill="#F69220" d="M148.6 36s.1-.1.2-.3c.1-.2.3-.4.5-.8.2-.3.5-.8.7-1.2.1-.1.1-.2.2-.4.1-.1.1-.3.2-.4.1-.3.3-.6.4-.9.1-.3.3-.6.4-1 .1-.3.3-.7.4-1.1.1-.2.1-.4.2-.6.1-.2.1-.4.2-.6 0-.2.1-.4.2-.6 0-.2.1-.4.1-.6 0-.2.1-.4.1-.6 0-.2.1-.4.1-.6 0-.2.1-.4.1-.6 0-.2 0-.4.1-.7 0-.2 0-.4.1-.7v-.7-1.4-1.4c0-.4-.1-.9-.1-1.3-.1-.9-.3-1.7-.5-2.5l-.3-1.2c-.1-.4-.3-.8-.4-1.1-.1-.4-.3-.7-.4-1-.1-.2-.1-.3-.2-.5s-.2-.3-.2-.5c-.3-.6-.6-1.2-.9-1.6-.3-.5-.5-.9-.7-1.2-.5-.7-.7-1-.7-1s.3.3.8.9c.2.3.6.7.9 1.1.2.2.3.5.5.7.1.1.2.3.3.4.1.1.2.3.3.4.1.1.2.3.3.5.1.2.2.3.3.5.2.3.3.7.5 1 .3.7.6 1.5.9 2.4.1.4.3.8.3 1.3.1.4.2.9.3 1.3.1.5.1.9.2 1.4l.1.7v2.8c0 .2-.1.5-.1.7 0 .2-.1.5-.1.7 0 .2-.1.4-.1.7 0 .2-.1.4-.1.7-.1.2-.1.4-.2.6-.1.2-.1.4-.2.6-.1.2-.1.4-.2.6-.1.2-.1.4-.2.6-.1.2-.1.4-.2.6-.1.4-.3.7-.5 1.1-.2.3-.3.7-.5 1-.2.3-.3.6-.5.9-.1.1-.2.3-.2.4-.1.1-.2.2-.2.4-.3.5-.6.9-.9 1.2-.2.3-.5.5-.6.7-.6.1-.7.2-.7.2z"/><path fill="#F69220" d="M153.8 42.4s.1-.1.3-.4c.2-.3.5-.7.9-1.2.2-.3.4-.5.6-.9.2-.3.4-.7.7-1.1.2-.4.5-.8.7-1.2.2-.4.5-.9.7-1.4.2-.5.5-1 .7-1.6.1-.3.2-.6.3-.8.1-.1.1-.3.2-.4.1-.1.1-.3.2-.4l.3-.9v-.2l.1-.2c0-.2.1-.3.1-.5.1-.3.2-.6.3-1 0-.2.1-.3.1-.5s.1-.3.1-.5c.1-.3.1-.7.2-1 .1-.3.1-.7.2-1 0-.3.1-.7.1-1 0-.4.1-.7.1-1.1 0-.4 0-.7.1-1.1v-1.1-2.2l-.1-1.1c0-.4 0-.7-.1-1.1-.1-.4-.1-.7-.2-1.1-.1-.4-.1-.7-.2-1.1-.1-.3-.2-.7-.2-1-.1-.3-.1-.7-.2-1-.1-.3-.2-.7-.3-1 0-.2-.1-.3-.1-.5l-.1-.2-.1-.2c-.2-.6-.5-1.3-.7-1.9-.3-.6-.5-1.2-.8-1.8-.3-.6-.6-1.1-.9-1.6-.1-.1-.1-.3-.2-.4-.1-.1-.2-.2-.2-.4-.2-.2-.3-.5-.4-.7-.1-.2-.3-.5-.4-.7-.2-.2-.3-.4-.4-.6-.3-.4-.6-.8-.8-1.2-.6-.7-1.1-1.3-1.5-1.8-.9-.8-1.4-1.3-1.4-1.3s.1.1.4.3c.3.2.6.6 1.1 1 .5.4 1 1 1.6 1.7.3.3.6.7.9 1.1.2.2.3.4.5.6.2.2.3.4.5.7.2.2.3.5.5.7.1.1.2.2.3.4.1.1.2.3.2.4.3.5.6 1.1.9 1.6l.9 1.8c.3.6.5 1.3.8 1.9l.1.2.1.3c.1.2.1.3.2.5.1.3.2.7.3 1 .1.3.2.7.3 1.1.1.4.2.7.3 1.1.1.4.1.7.2 1.1.1.4.1.7.2 1.1.1.4.1.7.1 1.1l.1 1.1V24.3c0 .4-.1.7-.1 1.1 0 .4-.1.7-.1 1.1-.1.4-.1.7-.2 1.1 0 .4-.1.7-.2 1.1-.1.3-.2.7-.2 1 0 .2-.1.3-.1.5s-.1.3-.1.5c-.1.3-.2.6-.3 1-.1.2-.1.3-.2.5l-.1.2v.2c-.1.3-.2.6-.4.9-.1.1-.1.3-.2.4-.1.1-.1.3-.2.4-.1.3-.3.6-.4.8-.3.5-.5 1.1-.8 1.5-.3.5-.5.9-.8 1.4-.3.4-.5.8-.8 1.2-.3.4-.5.7-.8 1-.2.3-.5.6-.7.8-.4.5-.8.9-1 1.1-.4.2-.5.3-.5.3z"/><g><path fill="#F69220" d="M143 29l.1-.1c.1-.1.1-.2.2-.3.1-.2.2-.3.3-.5 0-.1.1-.1.1-.2s.1-.1.1-.2c.1-.1.1-.2.2-.4.1-.1.1-.3.2-.4.1-.2.1-.3.2-.5 0-.1.1-.2.1-.2 0-.1.1-.2.1-.3 0-.1.1-.2.1-.3 0-.1 0-.2.1-.3 0-.1 0-.2.1-.3 0-.1 0-.2.1-.3 0-.1 0-.2.1-.3v-.3-.3-.3-.6-.6-.6c0-.4-.1-.8-.2-1.1 0-.2-.1-.4-.1-.5 0-.2-.1-.3-.2-.5 0-.2-.1-.3-.2-.5 0-.1-.1-.2-.1-.2 0-.1-.1-.1-.1-.2-.1-.3-.3-.5-.4-.7l-.3-.6c-.2-.3-.3-.5-.3-.5s.1.2.4.4c.1.1.2.3.4.5.1.1.1.2.2.3 0 .1.1.1.1.2s.1.1.1.2.1.1.1.2.1.1.1.2c.1.2.1.3.2.5.1.3.3.7.4 1.1 0 .2.1.4.1.6 0 .2.1.4.1.6 0 .2.1.4.1.6v2.1c0 .1 0 .2-.1.3 0 .1 0 .2-.1.3 0 .1-.1.2-.1.3 0 .1-.1.2-.1.3 0 .1-.1.2-.1.3 0 .1-.1.2-.1.3 0 .1-.1.2-.1.2-.1.2-.1.3-.2.5s-.2.3-.2.4c-.1.1-.2.3-.2.4 0 .1-.1.1-.1.2s-.1.1-.1.2c-.1.2-.3.4-.4.5l-.3.3-.3.1z"/></g><g><path fill="#F69220" d="M12.3 29.1v-9.9l-4 9.9H7l-4-9.9v9.9H0V15h4.2l3.4 8.5L11 15h4.2v14.1h-2.9zM21.6 29.1V17.7h-4.1V15h11.3v2.6h-4.1v11.5h-3.1zM40.7 29.1L34 19.9v9.2h-3V15h3l6.5 8.9V15h3v14.1h-2.8z"/><path fill="#FFF" d="M58.9 29.1v-9.9l-4 9.9h-1.3l-4-9.9v9.9h-3V15h4.2l3.4 8.5 3.4-8.5h4.2v14.1h-2.9zM65 29.1V15h10v2.6h-7v3h6.8v2.6H68v3.2h7V29H65zM77.6 29.1V15h3v14.1h-3zM82.7 27.1l1.6-2.3c1 1 2.5 1.9 4.5 1.9 1.7 0 2.5-.8 2.5-1.6 0-2.5-8.1-.8-8.1-6.1 0-2.4 2-4.3 5.4-4.3 2.2 0 4.1.7 5.5 2L92.3 19c-1.1-1.1-2.7-1.5-4.1-1.5-1.3 0-2 .6-2 1.4 0 2.2 8.1.7 8.1 6 0 2.6-1.8 4.5-5.7 4.5-2.6 0-4.6-.9-5.9-2.3zM99.6 29.1V17.7h-4.1V15h11.3v2.6h-4.1v11.5h-3.1zM108.9 29.1V15h10v2.6h-7v3h6.8v2.6h-6.8v3.2h7V29h-10zM129.5 29.1l-2.8-5h-2.2v5h-3V15h6.6c2.9 0 4.7 1.9 4.7 4.6 0 2.5-1.6 3.8-3.1 4.2l3.2 5.4h-3.4zm.3-9.5c0-1.2-.9-1.9-2.1-1.9h-3.2v3.8h3.2c1.2 0 2.1-.7 2.1-1.9z"/></g></symbol><symbol viewBox="0 0 32 32" id="shape-twitter"><title>twitter</title><path d="M32 6.076c-1.177.522-2.443.875-3.77 1.034 1.354-.813 2.395-2.1 2.886-3.632-1.27.752-2.674 1.3-4.17 1.593C25.75 3.796 24.044 3 22.157 3c-3.627 0-6.566 2.94-6.566 6.565 0 .515.058 1.016.17 1.496-5.456-.275-10.294-2.89-13.532-6.86-.565.97-.89 2.096-.89 3.3 0 2.278 1.16 4.287 2.922 5.465-1.076-.034-2.088-.33-2.974-.82v.082c0 3.18 2.262 5.834 5.265 6.437-.55.15-1.13.23-1.73.23-.422 0-.833-.04-1.234-.118.835 2.608 3.26 4.506 6.133 4.56-2.248 1.76-5.08 2.81-8.155 2.81-.53 0-1.052-.032-1.566-.093 2.904 1.863 6.355 2.95 10.063 2.95 12.076 0 18.68-10.004 18.68-18.68 0-.285-.007-.568-.02-.85C30.006 8.55 31.12 7.394 32 6.077z"/></symbol></svg>