<svg xmlns="http://www.w3.org/2000/svg" width="32" height="32" viewBox="0 0 32 32"><path d="M13.656 25.568c0 2.346-1.45 4.2-5.555 4.35-2.405-1.37-4.42-3.343-5.84-5.716.74-1.828 3.053-3.22 5.697-3.19.75.007 1.45.128 2.086.333 1.747 1.215 3.156 1.974 3.51 3.358.066.28.103.57.103.864zM16 0C11.377 0 7.213 1.962 4.292 5.097c1.154-.64 2.517-1.02 3.966-1.02h8.014l-1.79 1.88h-2.104c1.484.85 2.274 2.6 2.274 4.53 0 1.773-.982 3.2-2.368 4.284-1.352 1.057-1.61 1.5-1.61 2.4 0 .766 1.617 1.908 2.36 2.466 2.588 1.94 3.112 3.162 3.112 5.59 0 2.46-2.154 4.91-5.808 5.742 1.76.667 3.67 1.033 5.664 1.033 8.837 0 16-7.162 16-16s-7.163-16-16-16zm8 12v4h-2v-4h-4v-2h4V6h2v4h4v2h-4zm-12.57-1.392c.373 2.837-.87 4.662-3.03 4.598-2.16-.065-4.212-2.047-4.585-4.883C3.442 7.486 4.89 5.315 7.05 5.38s4.007 2.39 4.38 5.227zm-4.527 9.457c-2.334 0-4.316.805-5.714 1.996C.422 20.193 0 18.147 0 16c0-1.773.29-3.48.822-5.074.23 3.108 2.417 5.506 6.03 5.506.266 0 .524-.014.777-.032-.25.476-.427 1.006-.427 1.562 0 .937.515 1.47 1.152 2.09-.48 0-.946.013-1.454.013z"/></svg>