<svg xmlns="http://www.w3.org/2000/svg" width="32" height="32" viewBox="0 0 32 32"><path d="M6 18.07V31.93c.327.047.66.07 1 .07h1V18H7c-.34 0-.673.026-1 .072zM24 18v14h1c.34 0 .673-.025 1-.07V18.07c-.327-.047-.66-.07-1-.07h-1zm8-2c0-8.837-7.163-16-16-16S0 7.163 0 16c0 1.92.338 3.76.958 5.465C.348 22.503 0 23.71 0 25c0 2.792 1.635 5.202 4 6.326V18.674c-.63.3-1.206.69-1.714 1.153C2.1 18.914 2 17.967 2 17 2 9.268 8.268 3 16 3s14 6.268 14 14c0 .97-.098 1.914-.286 2.827-.51-.464-1.085-.854-1.714-1.153v12.652c2.365-1.124 4-3.534 4-6.326 0-1.29-.35-2.498-.958-3.535C31.662 19.76 32 17.92 32 16z"/></svg>