<svg xmlns="http://www.w3.org/2000/svg" viewBox="0 0 157.2 123.4"><path fill="#1E427C" d="M157.2 123.4s-31.9-4.9-33.5-7.8c-5-9.2-24-6.7-17.8-13.5 1-1.1 2.8-1.8 4.3-2.3 3.9-1.5 4.2-4.9 4.2-8.1 0-3.1-1.8-5.3-5.1-5.8-5.7-.8-11.5-1.7-17.2-2.3-2.2-.2-4.6-2.5-4.6-2.5s-.6-1.7-.6-2.8c-.1-2.8 2.1-9.9 2-12.6-.1-7.3-2.5-10.2-2.7-17.5-.1-3.2-.8-6.1-.8-9.2.8-3.5.5-7.6 1.8-11 1-2.7 2.8-5 3.7-7.6 1.8-4.8 3.5-3.3 5.1-14.8 0-.9.7-2.4.8-3.6.1-.9.1-2.6-1.7-1.9-.2.1-1.6 1.4-2 2.2s.5 2.6.5 2.6-3 8.5-3.6 9.2c-2.2 2.4-3.6 5.4-5.5 7.1-1.4 1.2-1.7 0-3.2.6.5-1.8 1-2.7 1-5.8 0-1.9-1.2-4.2-4.4-4.2s-3.5 3.2-3.7 4.8c-.2 1.3 1.5 4.1 1.9 5.7-3.4-2.6-3.9-.4-8.8-7.6-1.9-2.8-4.3-5.9-4.5-8.4-.1-1.2.1-3.2-.5-4-.6-.8-2.9-1.7-3.1-1.1-.4.9 1.1 4.6 1.1 5.3.2 1.8 1.5 6.6 3.1 10.1.8 1.8 4.5 5.9 5.3 7.6.1.3.2.6.4.8-1.3.4-3 1-3.3 1.6-.5 1 1 10.1 1 10.1l-1.2 1.2s.3 4.1.3 5.2c0 3.6-.5 4.7 1 5.8-.2.8-.4 1.6-.5 2.1-.5 1.2-2.8 3.3-2.8 3.3l.9-.2s1.5-.5 2.4-2.7c.3-.6.5-1.4.7-2.1l1.1.3c-.7 1.8-1.5 2.6-1.5 2.6s.9.6 1.9-1.1c.2-.3.3-.7.5-1.2l.8.2c.1 2.5.6 4.2.8 5.8.5 4.2.9 7.6.1 12.4-.6 4.1-2.5 6-2.8 10.1-.2 1.9-.3 1.9-.4 4.3-3.1-1-5.5-.2-7.9-.5-3.2-.4-6.4-.1-9.6-.1-.7 1-1.5 3-2.2 3-5.7-.3-5.7 4.5-7.4 7.8-1.3 2.5-2.3 5.2-3.7 7.6-1.8 3-1.4 5.6.6 8.3 2.2 2.9-10.8-.3-13.8 1.5-1.2.8-11.8 6.5-24 13.2l157.1-.1zM83 81.4c0 .8-1.9.3-2.8.3-2.4.1-3.6 1.1-6.9.7 1.4-5.5 2.6-8.9 3.7-11.7 1.5-4 1.5-8.7 2.2-15.7.7 2.5 2.4 7.4 2.4 7.4s.8 2.8 1 4c.8 5.5.1 9.4.4 15z"/></svg>