<svg xmlns="http://www.w3.org/2000/svg" width="162.6" height="44" viewBox="0 0 162.6 44"><g fill="#FFF" opacity=".36"><path d="M12.3 30.6v-9.9l-4 9.9H7l-4-9.9v9.9H0V16.4h4.2L7.6 25l3.4-8.5h4.2v14.1h-2.9zM21.6 30.6V19.1h-4.1v-2.6h11.3v2.6h-4.1v11.5h-3.1zM40.7 30.6L34 21.4v9.2h-3V16.4h3l6.5 8.9v-8.9h3v14.1h-2.8zM59.9 30.6v-9.9l-4 9.9h-1.3l-4-9.9v9.9h-3V16.4h4.2l3.4 8.5 3.4-8.5h4.2v14.1h-2.9zM66 30.6V16.4h10V19h-7v3h6.8v2.6H69v3.2h7v2.6H66zM78.6 30.6V16.4h3v14.1h-3zM83.7 28.6l1.6-2.3c1 1 2.5 1.9 4.5 1.9 1.7 0 2.5-.8 2.5-1.6 0-2.5-8.1-.8-8.1-6.1 0-2.4 2-4.3 5.4-4.3 2.2 0 4.1.7 5.5 2l-1.7 2.2c-1.1-1.1-2.7-1.5-4.1-1.5-1.3 0-2 .6-2 1.4 0 2.2 8.1.7 8.1 6 0 2.6-1.8 4.5-5.7 4.5-2.7 0-4.7-.9-6-2.2zM100.6 30.6V19.1h-4.1v-2.6h11.3v2.6h-4.1v11.5h-3.1zM109.9 30.6V16.4h10V19h-7v3h6.8v2.6h-6.8v3.2h7v2.6h-10zM130.5 30.6l-2.8-5h-2.2v5h-3V16.4h6.6c2.9 0 4.7 1.9 4.7 4.6 0 2.5-1.6 3.8-3.1 4.2l3.2 5.4h-3.4zm.3-9.6c0-1.2-.9-1.9-2.1-1.9h-3.2v3.8h3.2c1.2 0 2.1-.7 2.1-1.9z"/></g><path fill="#f8992f" d="M148.9 37.3c5.8-8.5 5.6-19.6-.4-27.9 7.3 7.7 7.4 19.9.4 27.9z"/><path fill="#f8992f" d="M154.3 44c10.6-13 9.5-32.1-2.4-44 13.2 11 14.3 31.7 2.4 44z"/><g><path fill="#f8992f" d="M143 30.1c2.6-4 2.6-8.4.1-12.4 3.1 4 3.1 8.4-.1 12.4z"/></g></svg>