<svg xmlns="http://www.w3.org/2000/svg" width="20" height="20" viewBox="0 0 20 20"><path d="M17.223 7.03C15.64 3.344 13.09.54 11.803 1.063c-2.19.89 1.303 5.164-9.448 9.533-.93.38-1.164 1.888-.775 2.792.388.902 1.658 1.8 2.587 1.424.16-.066.75-.256.75-.256.664.89 1.358.363 1.605.928l1.158 2.66s.715.967 1.075.83l2.05-.78s.58-.595.436-.923c-.153-.354-.785-.458-.966-.872-.18-.412-.77-1.738-.938-2.156-.23-.568.26-1.03.97-1.104 4.894-.512 5.81 2.512 7.475 1.834 1.288-.525 1.026-4.26-.557-7.942zm-.55 5.976c-.288.115-2.214-1.402-3.444-4.267-1.232-2.864-1.077-5.48-.79-5.598.285-.115 2.164 1.717 3.394 4.58s1.124 5.167.838 5.284z"/></svg>