<svg xmlns="http://www.w3.org/2000/svg" width="663.5" height="340.7" viewBox="0 0 663.5 340.7"><path fill="#043F7E" d="M560 115.9s1 7.9-3.5 14c-16.9 22.8 2.7 21.9 1.8 27.4-.5 2.7-9.8 10.8-22.5 18.8l-12.1-15.2c4.8-4.7 8.3-8.4 8.6-9.5 1.8-6.3 14.3-23 12.4-24.3L515 149.9l-90.8-99.4c-.6-.7 6.2 30.3.1 42.5-5 10.1 7.8 13.5 14.1 30.7 5 13.6 11.7 32.5 20.3 40.2v-.1c-4.3-10.5-.2-.6 0 0 0 .1.1.2.1.3 4.7 11.4-13.6 18.2-3 27.5 10.6 9.4-13 48.1-14.5 51.1-.1.2-2.6-41.3-10.6-44.7-23.2-9.8-27.7-2.1-29.4-8.1-1.7-6 3.1-4.6 6.7-8.4 5.3-5.6 4.5-43.8 4-68.8 0-1.3-1.6-2-2.6-1.1-7.8 7.5-6 19.2-13.5 32.7-8.7 15.7-46.1 45.3-44.3 73.6 1.2 18.5.2 31.3-7.7 43.4-.8 1.3-2.8.7-2.8-.8 0-9.2.2-29.9.3-39.9 0-1.6-2-2.1-2.8-.8-3.9 6.7-92.9 47.7-80.1 34.9 12.8-12.8 15.3-27.6 15.3-27.6 18.7-14.8 29.1-30.6 46.7-41.1 13.4-8 21-6.1 28.6-19 7.4-12.6 5.6-22.5 15.3-35.4 3.8-5 38.6-49 39.3-58.6-38.4 41.4-120.9 127.4-141.5 147.9l-2.1 2.1c-18.4-14-31.4-23.7-46.7-40.1.5 6.1 22.7 34.1 25.1 37.3 6.1 8.2 5-5.5 9.7 2.6 1.9 3.2 3.8 5 5.9 6.2-4.1 4.1-9.1 9.1-13.9 13.7-7.9-5.3-18.6-8.4-21.9-14.4-4.8-8.6.4-5-4.6-9.8-.6-.6-1.6-.1-1.7.7-.3 16-36.8 29-33.8 21.8 0-.1 0-.1.1-.2.1-.4 2.8-6.7 0 0 5.5-4.9 9.8-16.9 12.9-25.6 4-11 12.2-13.2 9-19.6-3.9-7.8.4-27.6.1-27.1l-69.1 83.9-20.2-13.3c-1.2.9 6.6 15.1 7.8 19.2.2.7 2.4 3 5.5 6.1l-7.7 9.7c-8.1-5.1-14.1-10.2-14.4-12-.6-3.5 11.9-2.9 1.2-17.4-2.9-3.9-2.2-8.9-2.2-8.9L0 340.7h663.5V220.6L560 115.9z"/><path fill="#F69220" d="M531 79.6s-.1-.3-.2-.9c-.1-.6-.3-1.5-.6-2.6s-.6-2.5-1.1-4c-.1-.4-.2-.8-.4-1.2-.1-.4-.3-.8-.4-1.2-.3-.8-.6-1.7-1-2.6-.4-.9-.7-1.9-1.2-2.8-.4-1-.9-2-1.4-2.9-.3-.5-.5-1-.8-1.5l-.9-1.5c-.3-.5-.6-1.1-.9-1.5-.3-.5-.7-1-1-1.6-.3-.5-.7-1-1-1.6-.4-.5-.7-1-1.1-1.5-.4-.5-.7-1-1.1-1.5l-1.2-1.5-1.2-1.5c-.4-.5-.9-.9-1.3-1.4-.4-.5-.9-1-1.3-1.4l-1.4-1.3c-.5-.4-.9-.9-1.4-1.3l-1.4-1.3c-.9-.9-2-1.6-3-2.4-2-1.5-4.1-2.9-6.2-4.2-1-.7-2.1-1.2-3.1-1.7-1-.6-2.1-1-3.1-1.5s-2-.9-3-1.3c-.5-.2-1-.4-1.4-.6-.5-.2-.9-.3-1.4-.5-1.8-.7-3.6-1.2-5.1-1.6-1.5-.4-2.9-.7-4-1-2.3-.4-3.6-.7-3.6-.7s1.3 0 3.6.2c1.1.1 2.6.3 4.1.5.8.1 1.6.3 2.5.5.5.1.9.2 1.4.3.5.1.9.2 1.4.4.5.1 1 .3 1.5.4.5.2 1 .3 1.5.5 1 .3 2.1.7 3.1 1.1 2.1.8 4.4 1.8 6.6 3.1 1.1.6 2.2 1.2 3.3 1.9 1.1.7 2.2 1.4 3.2 2.2 1.1.8 2.1 1.6 3.1 2.5l1.5 1.3c.5.4 1 .9 1.5 1.4l1.4 1.4c.5.5.9 1 1.3 1.5s.9 1 1.3 1.5.8 1 1.2 1.6c.4.5.8 1 1.2 1.6.4.5.7 1.1 1.1 1.6.4.5.7 1.1 1.1 1.6.3.5.6 1.1.9 1.6.3.5.6 1.1.9 1.6.3.6.6 1.1.9 1.7.3.5.5 1.1.8 1.6.2.5.5 1.1.7 1.6.5 1 .9 2.1 1.2 3.1.4 1 .7 2 1 3 .3.9.5 1.9.8 2.8.1.4.2.9.3 1.3.1.4.2.8.2 1.2.3 1.6.5 3 .6 4.1.2 1.1.2 2.1.2 2.7.8.4.8.7.8.7zM554.8 82.3s-.1-.5-.2-1.5-.3-2.5-.6-4.3c-.2-.9-.3-1.9-.5-3s-.5-2.3-.8-3.5c-.3-1.3-.7-2.6-1-4-.4-1.4-.9-2.8-1.3-4.3-.5-1.5-1.1-3-1.7-4.6-.3-.8-.7-1.6-1-2.4-.2-.4-.3-.8-.5-1.2l-.6-1.2c-.4-.8-.8-1.6-1.2-2.5l-.2-.3-.2-.3-.3-.6c-.2-.4-.5-.8-.7-1.2-.5-.8-.9-1.7-1.4-2.5-.2-.4-.5-.9-.7-1.3-.3-.4-.5-.8-.8-1.2-.5-.8-1.1-1.6-1.6-2.5-.5-.8-1.1-1.7-1.7-2.5-.6-.8-1.2-1.6-1.9-2.4-.6-.8-1.2-1.7-1.9-2.4-.7-.8-1.4-1.5-2.1-2.3l-1-1.2-.5-.6-.6-.5-2.2-2.2-1.1-1.1-.6-.5-.6-.5-2.4-2c-.8-.7-1.6-1.4-2.4-2-.8-.6-1.7-1.2-2.5-1.9-.8-.6-1.6-1.3-2.5-1.8-.9-.5-1.7-1.1-2.6-1.6-.9-.5-1.7-1.1-2.6-1.6-.9-.5-1.8-1-2.6-1.4-.4-.2-.9-.5-1.3-.7l-.7-.4-.7-.3c-1.8-.8-3.5-1.6-5.3-2.4-1.8-.7-3.5-1.3-5.2-2-1.7-.6-3.4-1-5-1.5-.4-.1-.8-.3-1.2-.4l-1.2-.3c-.8-.2-1.6-.4-2.4-.5-.8-.2-1.5-.4-2.3-.5-.7-.1-1.5-.2-2.2-.4-1.4-.2-2.8-.5-4.1-.7-2.6-.2-4.8-.5-6.7-.6-3.7-.1-5.8-.2-5.8-.2s.5 0 1.5-.1 2.5-.1 4.3-.3c1.9 0 4.1 0 6.7.1 1.3.1 2.7.3 4.1.4.7.1 1.5.1 2.2.2.8.1 1.5.3 2.3.4.8.1 1.6.3 2.4.4.4.1.8.1 1.3.2.4.1.8.2 1.3.3 1.7.4 3.4.9 5.2 1.4l5.4 1.8c1.8.7 3.6 1.5 5.5 2.3l.7.3.7.3c.5.2.9.5 1.4.7.9.5 1.8.9 2.8 1.4.9.4 1.8 1 2.7 1.6.9.6 1.8 1.1 2.7 1.7.9.5 1.8 1.2 2.6 1.8.9.6 1.7 1.3 2.6 1.9.9.6 1.7 1.4 2.5 2l2.5 2.1.6.5.6.6 1.1 1.1 2.3 2.3.6.6.5.6 1.1 1.2 2.1 2.4c.7.8 1.3 1.7 1.9 2.5.6.8 1.2 1.7 1.9 2.5.6.8 1.2 1.7 1.7 2.6.5.9 1.1 1.7 1.6 2.6.3.4.5.9.8 1.3.3.4.5.9.7 1.3.5.9.9 1.7 1.3 2.6.2.4.4.9.7 1.3l.3.6.2.4.1.3c.4.9.8 1.7 1.1 2.6.2.4.4.8.5 1.3.2.4.3.8.5 1.3.3.8.6 1.7.9 2.5.6 1.6 1 3.3 1.5 4.8.4 1.6.8 3 1.1 4.5.3 1.4.6 2.8.8 4.1.2 1.3.4 2.5.5 3.6.1 1.1.2 2.2.3 3.1.2 1.9.2 3.3.2 4.3.3.9.3 1.5.3 1.5z"/><g><path fill="#F69220" d="M505.3 77s0-.1-.1-.4c-.1-.3-.1-.7-.2-1.2s-.2-1.1-.4-1.8c0-.2-.1-.3-.1-.5-.1-.2-.1-.4-.2-.6-.1-.4-.2-.8-.4-1.2-.2-.4-.3-.8-.5-1.3-.2-.4-.4-.9-.6-1.3-.1-.2-.2-.5-.3-.7-.1-.2-.2-.5-.4-.7-.1-.2-.2-.5-.4-.7-.1-.2-.3-.5-.4-.7-.1-.2-.3-.5-.4-.7-.2-.2-.3-.4-.5-.7-.2-.2-.3-.5-.5-.7-.2-.2-.3-.4-.5-.7-.2-.2-.3-.4-.5-.7l-.6-.6-.6-.6-.6-.6-.6-.6-.6-.6c-.4-.4-.9-.7-1.3-1.1-.9-.7-1.8-1.4-2.7-1.9-.4-.3-.9-.5-1.4-.8-.4-.3-.9-.5-1.3-.7-.4-.2-.9-.4-1.3-.6l-.6-.3c-.2-.1-.4-.2-.6-.2-.8-.3-1.6-.6-2.2-.8-.7-.2-1.3-.3-1.8-.5-1-.2-1.6-.3-1.6-.3s.6 0 1.6.1c.5.1 1.1.1 1.8.3.4.1.7.2 1.1.2.2 0 .4.1.6.2.2.1.4.1.6.2.2.1.4.1.7.2.2.1.4.2.7.2.5.2.9.3 1.4.5.9.4 1.9.9 2.9 1.4.5.3 1 .6 1.4.9.5.3 1 .6 1.4 1 .5.4.9.7 1.4 1.1l.7.6.6.6.6.6c.2.2.4.5.6.7.2.2.4.5.6.7.2.2.4.5.5.7.2.2.4.5.5.7.2.2.3.5.5.7.2.2.3.5.5.7.1.2.3.5.4.7.1.2.3.5.4.7.1.3.2.5.4.7.1.2.2.5.3.7.1.2.2.5.3.7.2.5.4.9.5 1.4.2.5.3.9.4 1.3l.3 1.2c0 .2.1.4.1.6 0 .2.1.4.1.6.1.7.2 1.3.2 1.9.1.5 0 .9.1 1.2v.8z"/></g></svg>