<svg xmlns="http://www.w3.org/2000/svg" viewBox="-438 0 1101.5 340.7"><path fill="#F69220" d="M535.9 107.6c-5.6-29.2-28.5-51.5-58-56.3 30.8.9 56.1 25.7 58 56.3zM560.6 110.3c-4.9-48.5-46.1-85.2-94.9-85.1 49.5-4.5 94.2 35.4 94.9 85.1z"/><g><path fill="#F69220" d="M509.2 104.9c-2.7-13.5-11.7-22.6-25.2-25.7 14.5 2 23.6 11.2 25.2 25.7z"/></g><path fill-rule="evenodd" clip-rule="evenodd" fill="#043F7E" d="M630 206v9.5L581.1 166s.8 6.2-2.8 11c-13.3 17.9 2.1 17.2 1.4 21.5-.4 2.1-7.7 8.5-17.7 14.8l-9.5-12c3.8-3.7 6.5-6.6 6.8-7.5 1.4-5 11.2-18.1 9.8-19.1l-23.4 17.9-81.6-86c-.5-.6-.6 31.7-5.4 41.3-3.9 7.9-1.7 10.6 3.2 24.1 3.9 10.7 9.2 25.6 16 31.6v-.1c-3.4-8.3-.2-.5 0 0 0 .1.1.2.1.2 3.7 9-10.7 14.3-2.4 21.6 8.3 7.4-10.2 37.8-11.4 40.2-.1.2-2-32.5-8.3-35.2-18.2-7.7-21.8-1.7-23.1-6.4-1.3-4.7 2.4-3.6 5.3-6.6 4.2-4.4 3.5-34.4 3.1-54.1 0-1-1.3-1.6-2-.9-6.1 5.9-4.7 15.1-10.6 25.7-6.8 12.3-36.3 35.6-34.8 57.9.9 14.5.2 24.6-6.1 34.1-.6 1-2.2.6-2.2-.6 0-7.2.2-23.5.2-31.4 0-1.3-1.6-1.7-2.2-.6-3.1 5.3-73.1 37.5-63 27.4 10.1-10.1 12-21.7 12-21.7 14.7-11.6 22.9-24.1 36.7-32.3 10.5-6.3 16.5-4.8 22.5-14.9 5.8-9.9 4.4-17.7 12-27.8 3-3.9 46.1-54.3 46.6-61.8-30.2 32.6-112.4 115.9-128.6 132L320 250c-14.5-11-50.9-33.9-50.9-33.9s17.9 29.2 19.7 31.7c4.8 6.4 3.9-4.3 7.6 2 1.5 2.5 3 3.9 4.6 4.9-3.2 3.2-7.2 7.2-10.9 10.8-6.2-4.2-14.6-6.6-17.2-11.3-3.8-6.8.3-3.9-3.6-7.7-.5-.5-1.3-.1-1.3.6-.2 12.6-28.9 22.8-26.6 17.1 0-.1 0-.1.1-.2.1-.3 2.2-5.3 0 0 4.3-3.9 7.7-13.3 10.1-20.1 3.1-8.6 9.6-10.4 7.1-15.4-3.1-6.1.3-21.7.1-21.3l-70.1 66L173 263c-.9.7 5.2 11.9 6.1 15.1.2.6 1.9 2.4 4.3 4.8l-6.1 7.6c-6.4-4-11.1-8-11.3-9.4-.5-2.8 9.4-2.3.9-13.7-2.3-3.1-1.7-7-1.7-7l-33.8 30-74.9-8.1S-43.1 296.4-62 300.7l-199-6.7-102.7 7.1c-.2-2.9-1.1-7.9-1.4-9.7-.2-1.7-.8-4.2-.7-5.9.1-1.4-.7-4.2-1-4.7-1.3 1.9 2.1 3.8-3.5 3.7-.5-1.5-.4-3-1.3-4.5.7-1.7.3.2.9-1.7.5-1.7-.5-.6.8-1.5-1.8-.4-.9-2.2-3.8-.6-.5 2 .3 1.6.4 3.5-1.9-1-.4-1.4-1.4-3.2-3.7.5-1.3.9-2.5 3.2-1.9 3.8-.4 4-.2 5.4v.7c.1 1.6.5 1.8 2.2 2.1.1 2.7.5 1.6 0 4.1-.4 1.9.2 2-1.2 3.7-.9 1.2-1 2.3-1.8 3.4-.7 1-1.6 1.1-2.4 2.5.2.3.5.5.8.7l-58 4v49.4L674 355V236l-44-30zm-996.6 79.2l2.5 15.9-3.8.3c-1.8-1.2-.9-2.3-1.3-6.6-.2-2.2.1-1.8-.8-4.1-.3-.9-.9-3.3-.8-4.4l4.2-1.1zm-11 16.7c-.7-1.5 1.1-3.3 1.8-4.1 2.6-3.2 3.1-4.2 4.3-3.2 1.1.9.4.5.4 2.1 0 1.5.2 1 .5 2.2.3 1.2.2 2.1.1 2.7l-7 .5c0-.1 0-.1-.1-.2z"/></svg>