<svg xmlns="http://www.w3.org/2000/svg" width="32" height="32" viewBox="0 0 32 32"><path d="M25.76 25.005h-2.723v2.164c0 1.545-1.378 2.797-2.924 2.797H9.805c-1.546 0-2.8-1.252-2.8-2.798v-15.1h3v14.904h1.987l.002-14.905c.534.384 1.334.67 2.008.822v14.083h1.988V12.95c.745-.123 1.428-.403 2.016-.807v14.832h1.988V12.07h5.766c1.236 0 2.24 1 2.24 2.238v8.457c0 1.237-1.003 2.24-2.24 2.24zm.23-10.995h-2.954v8.985h2.955V14.01zm-4.768-2.868c-.98 0-1.863-.39-2.517-1.02-.812 1.146-2.142 1.9-3.653 1.9-1.457 0-2.738-.706-3.557-1.783-.648.598-1.508.972-2.46.972-1.755 0-3.22-1.243-3.562-2.896-.534-.35-.887-.952-.887-1.637 0-1.083.877-1.96 1.96-1.96.08 0 .156.014.233.023.604-.48 1.358-.785 2.188-.8.373-1.107 1.408-1.91 2.64-1.91.95 0 1.785.475 2.292 1.197.368-.1.75-.162 1.15-.162.42 0 .817.07 1.2.18.505-.733 1.348-1.215 2.304-1.215 1.207 0 2.226.768 2.62 1.838.016 0 .03-.004.047-.004 2.01 0 3.64 1.63 3.64 3.638s-1.63 3.638-3.638 3.638z"/></svg>