<svg xmlns="http://www.w3.org/2000/svg" width="161.9" height="42.4" viewBox="0 0 161.9 42.4"><path fill="#F69220" d="M148.6 36s.1-.1.2-.3c.1-.2.3-.4.5-.8.2-.3.5-.8.7-1.2.1-.1.1-.2.2-.4.1-.1.1-.3.2-.4.1-.3.3-.6.4-.9.1-.3.3-.6.4-1 .1-.3.3-.7.4-1.1.1-.2.1-.4.2-.6.1-.2.1-.4.2-.6 0-.2.1-.4.2-.6 0-.2.1-.4.1-.6 0-.2.1-.4.1-.6 0-.2.1-.4.1-.6 0-.2.1-.4.1-.6 0-.2 0-.4.1-.7 0-.2 0-.4.1-.7v-.7-1.4-1.4c0-.4-.1-.9-.1-1.3-.1-.9-.3-1.7-.5-2.5l-.3-1.2c-.1-.4-.3-.8-.4-1.1-.1-.4-.3-.7-.4-1-.1-.2-.1-.3-.2-.5s-.2-.3-.2-.5c-.3-.6-.6-1.2-.9-1.6-.3-.5-.5-.9-.7-1.2-.5-.7-.7-1-.7-1s.3.3.8.9c.2.3.6.7.9 1.1.2.2.3.5.5.7.1.1.2.3.3.4.1.1.2.3.3.4.1.1.2.3.3.5.1.2.2.3.3.5.2.3.3.7.5 1 .3.7.6 1.5.9 2.4.1.4.3.8.3 1.3.1.4.2.9.3 1.3.1.5.1.9.2 1.4l.1.7v2.8c0 .2-.1.5-.1.7 0 .2-.1.5-.1.7 0 .2-.1.4-.1.7 0 .2-.1.4-.1.7-.1.2-.1.4-.2.6-.1.2-.1.4-.2.6-.1.2-.1.4-.2.6-.1.2-.1.4-.2.6-.1.2-.1.4-.2.6-.1.4-.3.7-.5 1.1-.2.3-.3.7-.5 1-.2.3-.3.6-.5.9-.1.1-.2.3-.2.4-.1.1-.2.2-.2.4-.3.5-.6.9-.9 1.2-.2.3-.5.5-.6.7-.6.1-.7.2-.7.2z"/><path fill="#F69220" d="M153.8 42.4s.1-.1.3-.4c.2-.3.5-.7.9-1.2.2-.3.4-.5.6-.9.2-.3.4-.7.7-1.1.2-.4.5-.8.7-1.2.2-.4.5-.9.7-1.4.2-.5.5-1 .7-1.6.1-.3.2-.6.3-.8.1-.1.1-.3.2-.4.1-.1.1-.3.2-.4l.3-.9v-.2l.1-.2c0-.2.1-.3.1-.5.1-.3.2-.6.3-1 0-.2.1-.3.1-.5s.1-.3.1-.5c.1-.3.1-.7.2-1 .1-.3.1-.7.2-1 0-.3.1-.7.1-1 0-.4.1-.7.1-1.1 0-.4 0-.7.1-1.1v-1.1-2.2l-.1-1.1c0-.4 0-.7-.1-1.1-.1-.4-.1-.7-.2-1.1-.1-.4-.1-.7-.2-1.1-.1-.3-.2-.7-.2-1-.1-.3-.1-.7-.2-1-.1-.3-.2-.7-.3-1 0-.2-.1-.3-.1-.5l-.1-.2-.1-.2c-.2-.6-.5-1.3-.7-1.9-.3-.6-.5-1.2-.8-1.8-.3-.6-.6-1.1-.9-1.6-.1-.1-.1-.3-.2-.4-.1-.1-.2-.2-.2-.4-.2-.2-.3-.5-.4-.7-.1-.2-.3-.5-.4-.7-.2-.2-.3-.4-.4-.6-.3-.4-.6-.8-.8-1.2-.6-.7-1.1-1.3-1.5-1.8-.9-.8-1.4-1.3-1.4-1.3s.1.1.4.3c.3.2.6.6 1.1 1 .5.4 1 1 1.6 1.7.3.3.6.7.9 1.1.2.2.3.4.5.6.2.2.3.4.5.7.2.2.3.5.5.7.1.1.2.2.3.4.1.1.2.3.2.4.3.5.6 1.1.9 1.6l.9 1.8c.3.6.5 1.3.8 1.9l.1.2.1.3c.1.2.1.3.2.5.1.3.2.7.3 1 .1.3.2.7.3 1.1.1.4.2.7.3 1.1.1.4.1.7.2 1.1.1.4.1.7.2 1.1.1.4.1.7.1 1.1l.1 1.1V24.3c0 .4-.1.7-.1 1.1 0 .4-.1.7-.1 1.1-.1.4-.1.7-.2 1.1 0 .4-.1.7-.2 1.1-.1.3-.2.7-.2 1 0 .2-.1.3-.1.5s-.1.3-.1.5c-.1.3-.2.6-.3 1-.1.2-.1.3-.2.5l-.1.2v.2c-.1.3-.2.6-.4.9-.1.1-.1.3-.2.4-.1.1-.1.3-.2.4-.1.3-.3.6-.4.8-.3.5-.5 1.1-.8 1.5-.3.5-.5.9-.8 1.4-.3.4-.5.8-.8 1.2-.3.4-.5.7-.8 1-.2.3-.5.6-.7.8-.4.5-.8.9-1 1.1-.4.2-.5.3-.5.3z"/><g><path fill="#F69220" d="M143 29l.1-.1c.1-.1.1-.2.2-.3.1-.2.2-.3.3-.5 0-.1.1-.1.1-.2s.1-.1.1-.2c.1-.1.1-.2.2-.4.1-.1.1-.3.2-.4.1-.2.1-.3.2-.5 0-.1.1-.2.1-.2 0-.1.1-.2.1-.3 0-.1.1-.2.1-.3 0-.1 0-.2.1-.3 0-.1 0-.2.1-.3 0-.1 0-.2.1-.3 0-.1 0-.2.1-.3v-.3-.3-.3-.6-.6-.6c0-.4-.1-.8-.2-1.1 0-.2-.1-.4-.1-.5 0-.2-.1-.3-.2-.5 0-.2-.1-.3-.2-.5 0-.1-.1-.2-.1-.2 0-.1-.1-.1-.1-.2-.1-.3-.3-.5-.4-.7l-.3-.6c-.2-.3-.3-.5-.3-.5s.1.2.4.4c.1.1.2.3.4.5.1.1.1.2.2.3 0 .1.1.1.1.2s.1.1.1.2.1.1.1.2.1.1.1.2c.1.2.1.3.2.5.1.3.3.7.4 1.1 0 .2.1.4.1.6 0 .2.1.4.1.6 0 .2.1.4.1.6v2.1c0 .1 0 .2-.1.3 0 .1 0 .2-.1.3 0 .1-.1.2-.1.3 0 .1-.1.2-.1.3 0 .1-.1.2-.1.3 0 .1-.1.2-.1.3 0 .1-.1.2-.1.2-.1.2-.1.3-.2.5s-.2.3-.2.4c-.1.1-.2.3-.2.4 0 .1-.1.1-.1.2s-.1.1-.1.2c-.1.2-.3.4-.4.5l-.3.3-.3.1z"/></g><g><path fill="#F69220" d="M12.3 29.1v-9.9l-4 9.9H7l-4-9.9v9.9H0V15h4.2l3.4 8.5L11 15h4.2v14.1h-2.9zM21.6 29.1V17.7h-4.1V15h11.3v2.6h-4.1v11.5h-3.1zM40.7 29.1L34 19.9v9.2h-3V15h3l6.5 8.9V15h3v14.1h-2.8z"/><path fill="#FFF" d="M58.9 29.1v-9.9l-4 9.9h-1.3l-4-9.9v9.9h-3V15h4.2l3.4 8.5 3.4-8.5h4.2v14.1h-2.9zM65 29.1V15h10v2.6h-7v3h6.8v2.6H68v3.2h7V29H65zM77.6 29.1V15h3v14.1h-3zM82.7 27.1l1.6-2.3c1 1 2.5 1.9 4.5 1.9 1.7 0 2.5-.8 2.5-1.6 0-2.5-8.1-.8-8.1-6.1 0-2.4 2-4.3 5.4-4.3 2.2 0 4.1.7 5.5 2L92.3 19c-1.1-1.1-2.7-1.5-4.1-1.5-1.3 0-2 .6-2 1.4 0 2.2 8.1.7 8.1 6 0 2.6-1.8 4.5-5.7 4.5-2.6 0-4.6-.9-5.9-2.3zM99.6 29.1V17.7h-4.1V15h11.3v2.6h-4.1v11.5h-3.1zM108.9 29.1V15h10v2.6h-7v3h6.8v2.6h-6.8v3.2h7V29h-10zM129.5 29.1l-2.8-5h-2.2v5h-3V15h6.6c2.9 0 4.7 1.9 4.7 4.6 0 2.5-1.6 3.8-3.1 4.2l3.2 5.4h-3.4zm.3-9.5c0-1.2-.9-1.9-2.1-1.9h-3.2v3.8h3.2c1.2 0 2.1-.7 2.1-1.9z"/></g></svg>