<!-- Generator: Adobe Illustrator 18.0.0, SVG Export Plug-In  -->
<svg version="1.1"
	 xmlns="http://www.w3.org/2000/svg" xmlns:xlink="http://www.w3.org/1999/xlink" xmlns:a="http://ns.adobe.com/AdobeSVGViewerExtensions/3.0/"
	 x="0px" y="0px" width="210.5px" height="101.7px" viewBox="0 0 210.5 101.7" enable-background="new 0 0 210.5 101.7"
	 xml:space="preserve">
<defs>
</defs>
<path fill-rule="evenodd" clip-rule="evenodd" fill="#FFFFFF" d="M139.1,54c0,0,0.3,2.3-1,4.1c-4.9,6.6,0.8,6.3,0.5,7.9
	c-0.1,0.8-2.8,3.1-6.5,5.4l-3.5-4.4c1.4-1.4,2.4-2.4,2.5-2.8c0.5-1.8,4.2-6.6,3.6-7l-8.6,6.6L94,23.5c-0.2-0.2,1.8,8.8,0,12.3
	c-1.5,2.9,2.3,3.9,4.1,8.9c1.4,3.9,3.4,9.4,5.9,11.6c0,0,0,0,0,0c-1.3-3-0.1-0.2,0,0c0,0,0,0.1,0,0.1c1.4,3.3-3.9,5.3-0.9,8
	c3.1,2.7-3.8,13.9-4.2,14.8c0,0.1-0.7-11.9-3.1-12.9c-6.7-2.8-8-0.6-8.5-2.3c-0.5-1.7,0.9-1.3,1.9-2.4c1.5-1.6,1.3-12.7,1.2-19.9
	c0-0.4-0.5-0.6-0.8-0.3c-2.3,2.2-1.7,5.6-3.9,9.5c-2.5,4.5-13.3,13.1-12.8,21.3c0.3,5.3,0,9-2.2,12.6c-0.2,0.4-0.8,0.2-0.8-0.2
	c0-2.7,0.1-8.6,0.1-11.6c0-0.5-0.6-0.6-0.8-0.2c-1.1,1.9-3.3,5.6-5.4,9.2l-13.4-7.1c5.4-4.3,8.4-8.9,13.5-11.9
	c3.9-2.3,6.1-1.8,8.3-5.5c2.2-3.7,1.6-6.5,4.4-10.2c1.1-1.5,11.2-14.2,11.4-16.9C77,42,53.1,66.9,47.2,72.8l-13.3-7.1l-7.7,8.1
	c1.5-0.4,7.5-3,7.7-4.2c0.2-1.2,5.3,5.5,3.2,7.1c-1.1,0.9-8.4,6.9-9.6,8.5c-0.8,1-1.2-1.8-0.6-4.4c0.4-1.9,1.9-3.8,1.3-3.7
	c-1.4,0.2-4.5,2.6-6.3,3.9c-0.3,0.3-2.6,3.4-4.5,5.9c-1.3-0.7-2-0.5-1.5-0.9c0.7-0.6,2.8-3.5,4.2-5.8L0,101.7h185L139.1,54z"/>
<g>
	<g>
		<g>
			<path fill="#F69220" d="M192.4,60.6c0,0-0.1-0.2-0.2-0.7c-0.1-0.5-0.2-1.1-0.4-2c-0.2-0.8-0.5-1.9-0.8-3
				c-0.1-0.3-0.2-0.6-0.3-0.9c-0.1-0.3-0.2-0.6-0.3-0.9c-0.2-0.6-0.4-1.3-0.7-2c-0.3-0.7-0.5-1.4-0.9-2.1c-0.3-0.7-0.6-1.5-1-2.2
				c-0.2-0.4-0.4-0.8-0.6-1.1c-0.2-0.4-0.4-0.8-0.6-1.1c-0.2-0.4-0.4-0.8-0.7-1.1c-0.2-0.4-0.5-0.8-0.7-1.2
				c-0.3-0.4-0.5-0.8-0.8-1.2c-0.3-0.4-0.5-0.8-0.8-1.1c-0.3-0.4-0.6-0.8-0.8-1.1c-0.3-0.4-0.6-0.7-0.9-1.1
				c-0.3-0.4-0.6-0.8-0.9-1.1c-0.3-0.4-0.7-0.7-1-1.1c-0.3-0.4-0.7-0.7-1-1.1l-1.1-1c-0.4-0.3-0.7-0.7-1.1-1l-1.1-1
				c-0.7-0.7-1.5-1.2-2.3-1.8c-1.5-1.2-3.1-2.2-4.7-3.2c-0.8-0.5-1.6-0.9-2.4-1.3c-0.8-0.5-1.6-0.8-2.3-1.2c-0.8-0.4-1.5-0.7-2.3-1
				c-0.4-0.2-0.7-0.3-1.1-0.5c-0.4-0.1-0.7-0.3-1.1-0.4c-1.4-0.5-2.7-0.9-3.9-1.2c-1.2-0.3-2.2-0.5-3.1-0.7
				c-1.7-0.3-2.7-0.5-2.7-0.5s1,0,2.8,0.1c0.9,0.1,1.9,0.2,3.2,0.4c0.6,0.1,1.3,0.2,1.9,0.4c0.3,0.1,0.7,0.1,1,0.2
				c0.4,0.1,0.7,0.2,1.1,0.3c0.4,0.1,0.7,0.2,1.1,0.3c0.4,0.1,0.8,0.2,1.2,0.4c0.8,0.3,1.6,0.5,2.4,0.9c1.6,0.6,3.3,1.4,5,2.3
				c0.8,0.5,1.7,0.9,2.5,1.5c0.8,0.5,1.7,1.1,2.5,1.7c0.8,0.6,1.6,1.2,2.4,1.9l1.2,1c0.4,0.3,0.7,0.7,1.1,1.1l1.1,1.1
				c0.4,0.4,0.7,0.8,1,1.1c0.3,0.4,0.7,0.8,1,1.1c0.3,0.4,0.6,0.8,0.9,1.2c0.3,0.4,0.6,0.8,0.9,1.2c0.3,0.4,0.6,0.8,0.8,1.2
				c0.3,0.4,0.6,0.8,0.8,1.2c0.2,0.4,0.5,0.8,0.7,1.2c0.2,0.4,0.5,0.8,0.7,1.2c0.3,0.4,0.4,0.8,0.6,1.3c0.2,0.4,0.4,0.8,0.6,1.2
				c0.2,0.4,0.4,0.8,0.5,1.2c0.4,0.8,0.7,1.6,0.9,2.4c0.3,0.8,0.5,1.5,0.7,2.3c0.2,0.7,0.4,1.4,0.6,2.1c0.1,0.3,0.2,0.7,0.2,1
				c0.1,0.3,0.1,0.6,0.2,0.9c0.3,1.2,0.4,2.3,0.5,3.2c0.1,0.9,0.1,1.6,0.2,2C192.4,60.4,192.4,60.6,192.4,60.6z"/>
		</g>
		<g>
			<path fill="#F69220" d="M210.5,62.6c0,0-0.1-0.4-0.1-1.2c-0.1-0.8-0.2-1.9-0.5-3.3c-0.1-0.7-0.2-1.5-0.4-2.3
				c-0.2-0.8-0.4-1.7-0.6-2.7c-0.2-1-0.5-2-0.8-3c-0.3-1.1-0.7-2.2-1-3.3c-0.4-1.1-0.8-2.3-1.3-3.5c-0.3-0.6-0.5-1.2-0.8-1.8
				c-0.1-0.3-0.3-0.6-0.4-0.9c-0.1-0.3-0.3-0.6-0.4-0.9c-0.3-0.6-0.6-1.2-0.9-1.9l-0.1-0.2l-0.1-0.2l-0.3-0.5
				c-0.2-0.3-0.4-0.6-0.5-1c-0.4-0.6-0.7-1.3-1.1-1.9c-0.2-0.3-0.4-0.7-0.6-1c-0.2-0.3-0.4-0.6-0.6-0.9c-0.4-0.6-0.8-1.2-1.2-1.9
				c-0.4-0.6-0.8-1.3-1.3-1.9c-0.5-0.6-0.9-1.2-1.4-1.8c-0.5-0.6-0.9-1.3-1.5-1.8c-0.5-0.6-1-1.2-1.6-1.8l-0.8-0.9l-0.4-0.4
				l-0.4-0.4c-0.6-0.6-1.1-1.1-1.7-1.7l-0.9-0.8l-0.4-0.4l-0.5-0.4l-1.8-1.6c-0.6-0.5-1.2-1.1-1.8-1.5c-0.6-0.5-1.3-0.9-1.9-1.4
				c-0.6-0.5-1.3-1-1.9-1.4c-0.7-0.4-1.3-0.8-2-1.3c-0.7-0.4-1.3-0.9-2-1.2c-0.7-0.4-1.3-0.7-2-1.1c-0.3-0.2-0.7-0.4-1-0.5l-0.5-0.3
				l-0.5-0.2c-1.4-0.6-2.7-1.2-4-1.8c-1.3-0.5-2.7-1-4-1.5c-1.3-0.4-2.6-0.8-3.8-1.2c-0.3-0.1-0.6-0.2-0.9-0.3
				c-0.3-0.1-0.6-0.1-0.9-0.2c-0.6-0.1-1.2-0.3-1.8-0.4c-0.6-0.1-1.2-0.3-1.7-0.4c-0.6-0.1-1.1-0.2-1.7-0.3
				c-1.1-0.2-2.1-0.3-3.1-0.5c-2-0.2-3.7-0.4-5.1-0.5c-2.8-0.1-4.4-0.1-4.4-0.1s0.4,0,1.2-0.1c0.8,0,1.9-0.1,3.3-0.2
				c1.4,0,3.1,0,5.1,0.1c1,0.1,2,0.2,3.1,0.3c0.6,0.1,1.1,0.1,1.7,0.2c0.6,0.1,1.2,0.2,1.8,0.3c0.6,0.1,1.2,0.2,1.8,0.3
				c0.3,0.1,0.6,0.1,1,0.2c0.3,0.1,0.6,0.2,1,0.2c1.3,0.3,2.6,0.7,4,1c1.3,0.5,2.7,0.9,4.1,1.4c1.4,0.5,2.8,1.2,4.2,1.8l0.5,0.2
				l0.5,0.3c0.3,0.2,0.7,0.4,1,0.5c0.7,0.4,1.4,0.7,2.1,1.1c0.7,0.3,1.4,0.8,2.1,1.2c0.7,0.4,1.4,0.8,2.1,1.3c0.7,0.4,1.3,0.9,2,1.4
				c0.7,0.5,1.3,1,2,1.4c0.7,0.5,1.3,1,1.9,1.5l1.9,1.6l0.5,0.4l0.4,0.4l0.9,0.9c0.6,0.6,1.2,1.2,1.7,1.7l0.4,0.4l0.4,0.5l0.8,0.9
				c0.5,0.6,1.1,1.2,1.6,1.8c0.6,0.6,1,1.3,1.5,1.9c0.5,0.6,0.9,1.3,1.4,1.9c0.5,0.6,0.9,1.3,1.3,2c0.4,0.7,0.8,1.3,1.2,2
				c0.2,0.3,0.4,0.7,0.6,1c0.2,0.3,0.4,0.7,0.5,1c0.3,0.7,0.7,1.3,1,2c0.2,0.3,0.3,0.6,0.5,1l0.2,0.5l0.1,0.3l0.1,0.2
				c0.3,0.7,0.6,1.3,0.9,2c0.1,0.3,0.3,0.6,0.4,1c0.1,0.3,0.2,0.6,0.4,1c0.2,0.6,0.5,1.3,0.7,1.9c0.4,1.3,0.8,2.5,1.2,3.6
				c0.3,1.2,0.6,2.3,0.9,3.4c0.2,1.1,0.4,2.1,0.6,3.1c0.1,1,0.3,1.9,0.4,2.8c0.1,0.9,0.2,1.6,0.2,2.3c0.2,1.4,0.1,2.5,0.2,3.3
				C210.4,62.2,210.5,62.6,210.5,62.6z"/>
		</g>
	</g>
	<g>
		<g>
			<path fill="#F69220" d="M172.8,58.6c0,0,0-0.1-0.1-0.3c0-0.2-0.1-0.5-0.2-0.9c-0.1-0.4-0.2-0.8-0.3-1.4c0-0.1-0.1-0.3-0.1-0.4
				c0-0.1-0.1-0.3-0.1-0.4c-0.1-0.3-0.2-0.6-0.3-0.9c-0.1-0.3-0.2-0.6-0.4-1c-0.1-0.3-0.3-0.7-0.4-1c-0.1-0.2-0.2-0.3-0.2-0.5
				c-0.1-0.2-0.2-0.3-0.3-0.5c-0.1-0.2-0.2-0.4-0.3-0.5c-0.1-0.2-0.2-0.4-0.3-0.5c-0.1-0.2-0.2-0.4-0.3-0.5
				c-0.1-0.2-0.2-0.3-0.4-0.5c-0.1-0.2-0.2-0.3-0.4-0.5c-0.1-0.2-0.3-0.3-0.4-0.5c-0.1-0.2-0.3-0.3-0.4-0.5
				c-0.1-0.2-0.3-0.3-0.4-0.5c-0.1-0.2-0.3-0.3-0.4-0.5l-0.5-0.5c-0.2-0.2-0.3-0.3-0.5-0.5l-0.5-0.4c-0.3-0.3-0.7-0.6-1-0.8
				c-0.7-0.5-1.4-1-2.1-1.5c-0.3-0.2-0.7-0.4-1-0.6c-0.3-0.2-0.7-0.4-1-0.5c-0.3-0.2-0.7-0.3-1-0.5c-0.2-0.1-0.3-0.1-0.5-0.2
				c-0.2-0.1-0.3-0.1-0.5-0.2c-0.6-0.2-1.2-0.4-1.7-0.6c-0.5-0.1-1-0.3-1.4-0.4c-0.8-0.2-1.2-0.3-1.2-0.3s0.4,0,1.2,0.1
				c0.4,0.1,0.9,0.1,1.4,0.2c0.3,0.1,0.6,0.1,0.9,0.2c0.2,0,0.3,0.1,0.5,0.1c0.2,0,0.3,0.1,0.5,0.1c0.2,0,0.3,0.1,0.5,0.1
				c0.2,0.1,0.3,0.1,0.5,0.2c0.3,0.1,0.7,0.2,1.1,0.4c0.7,0.3,1.5,0.7,2.2,1.1c0.4,0.2,0.7,0.4,1.1,0.7c0.4,0.2,0.7,0.5,1.1,0.8
				c0.4,0.3,0.7,0.6,1,0.9l0.5,0.5c0.2,0.2,0.3,0.3,0.5,0.5l0.5,0.5c0.2,0.2,0.3,0.3,0.4,0.5c0.1,0.2,0.3,0.3,0.4,0.5
				c0.1,0.2,0.3,0.4,0.4,0.5c0.1,0.2,0.3,0.4,0.4,0.5c0.1,0.2,0.2,0.4,0.4,0.6c0.1,0.2,0.2,0.4,0.4,0.6c0.1,0.2,0.2,0.4,0.3,0.6
				c0.1,0.2,0.2,0.4,0.3,0.5c0.1,0.2,0.2,0.4,0.3,0.6c0.1,0.2,0.2,0.4,0.3,0.6c0.1,0.2,0.1,0.4,0.2,0.5c0.2,0.4,0.3,0.7,0.4,1.1
				c0.1,0.3,0.2,0.7,0.3,1c0.1,0.3,0.2,0.6,0.2,0.9c0,0.2,0.1,0.3,0.1,0.4c0,0.1,0,0.3,0.1,0.4c0.1,0.5,0.1,1,0.2,1.4
				c0,0.4,0,0.7,0.1,0.9C172.8,58.5,172.8,58.6,172.8,58.6z"/>
		</g>
	</g>
</g>
</svg>
