<svg version="1.1"
	 xmlns="http://www.w3.org/2000/svg" xmlns:xlink="http://www.w3.org/1999/xlink" xmlns:a="http://ns.adobe.com/AdobeSVGViewerExtensions/3.0/"
	 x="0px" y="0px" width="100%" height="100%" viewBox="0 0 157.2 123.4" enable-background="new 0 0 157.2 123.4"
	 xml:space="preserve">
<defs>
</defs>
<path fill="#1E427C" d="M157.2,123.4c0,0-31.9-4.9-33.5-7.8c-5-9.2-24-6.7-17.8-13.5c1-1.1,2.8-1.8,4.3-2.3c3.9-1.5,4.2-4.9,4.2-8.1
	c0-3.1-1.8-5.3-5.1-5.8c-5.7-0.8-11.5-1.7-17.2-2.3c-2.2-0.2-4.6-2.5-4.6-2.5s-0.6-1.7-0.6-2.8c-0.1-2.8,2.1-9.9,2-12.6
	c-0.1-7.3-2.5-10.2-2.7-17.5c-0.1-3.2-0.8-6.1-0.8-9.2c0.8-3.5,0.5-7.6,1.8-11c1-2.7,2.8-5,3.7-7.6c1.8-4.8,3.5-3.3,5.1-14.8
	C96,4.7,96.7,3.2,96.8,2c0.1-0.9,0.1-2.6-1.7-1.9c-0.2,0.1-1.6,1.4-2,2.2s0.5,2.6,0.5,2.6s-3,8.5-3.6,9.2c-2.2,2.4-3.6,5.4-5.5,7.1
	c-1.4,1.2-1.7,0-3.2,0.6c0.5-1.8,1-2.7,1-5.8c0-1.9-1.2-4.2-4.4-4.2c-3.2,0-3.5,3.2-3.7,4.8c-0.2,1.3,1.5,4.1,1.9,5.7
	c-3.4-2.6-3.9-0.4-8.8-7.6c-1.9-2.8-4.3-5.9-4.5-8.4c-0.1-1.2,0.1-3.2-0.5-4c-0.6-0.8-2.9-1.7-3.1-1.1c-0.4,0.9,1.1,4.6,1.1,5.3
	c0.2,1.8,1.5,6.6,3.1,10.1c0.8,1.8,4.5,5.9,5.3,7.6c0.1,0.3,0.2,0.6,0.4,0.8c-1.3,0.4-3,1-3.3,1.6c-0.5,1,1,10.1,1,10.1l-1.2,1.2
	c0,0,0.3,4.1,0.3,5.2c0,3.6-0.5,4.7,1,5.8c-0.2,0.8-0.4,1.6-0.5,2.1c-0.5,1.2-2.8,3.3-2.8,3.3l0.9-0.2c0,0,1.5-0.5,2.4-2.7
	c0.3-0.6,0.5-1.4,0.7-2.1l1.1,0.3c-0.7,1.8-1.5,2.6-1.5,2.6s0.9,0.6,1.9-1.1c0.2-0.3,0.3-0.7,0.5-1.2l0.8,0.2
	c0.1,2.5,0.6,4.2,0.8,5.8c0.5,4.2,0.9,7.6,0.1,12.4c-0.6,4.1-2.5,6-2.8,10.1c-0.2,1.9-0.3,1.9-0.4,4.3c-3.1-1-5.5-0.2-7.9-0.5
	c-3.2-0.4-6.4-0.1-9.6-0.1c-0.7,1-1.5,3-2.2,3c-5.7-0.3-5.7,4.5-7.4,7.8c-1.3,2.5-2.3,5.2-3.7,7.6c-1.8,3-1.4,5.6,0.6,8.3
	c2.2,2.9-10.8-0.3-13.8,1.5c-1.2,0.8-11.8,6.5-24,13.2L157.2,123.4z M83,81.4c0,0.8-1.9,0.3-2.8,0.3c-2.4,0.1-3.6,1.1-6.9,0.7
	c1.4-5.5,2.6-8.9,3.7-11.7c1.5-4,1.5-8.7,2.2-15.7c0.7,2.5,2.4,7.4,2.4,7.4s0.8,2.8,1,4C83.4,71.9,82.7,75.8,83,81.4z"/>
</svg>
