<!-- Generator: Adobe Illustrator 18.0.0, SVG Export Plug-In  -->
<svg version="1.1"
	 xmlns="http://www.w3.org/2000/svg" xmlns:xlink="http://www.w3.org/1999/xlink" xmlns:a="http://ns.adobe.com/AdobeSVGViewerExtensions/3.0/"
	 x="0px" y="0px" width="824.9px" height="91.7px" viewBox="0 0 824.9 91.7" enable-background="new 0 0 824.9 91.7"
	 xml:space="preserve">
<defs>
</defs>
<path fill="#043F7E" d="M824.9,91.5l-51.8-49.9c0,0,0.3,2.7-1.2,4.8c-5.7,7.7,0.9,7.4,0.6,9.3c-0.2,0.9-3.3,3.7-7.6,6.4l-4.1-5.2
	c1.6-1.6,2.8-2.9,2.9-3.2c0.6-2.2,4.9-7.8,4.2-8.2l-10.1,7.7L720.2,5.8c-0.2-0.2,2.1,10.3,0,14.4c-1.7,3.4,2.6,4.6,4.8,10.4
	c1.7,4.6,4,11,6.9,13.6c0,0,0,0,0,0c-1.5-3.6-0.1-0.2,0,0c0,0,0,0.1,0,0.1c1.6,3.9-4.6,6.2-1,9.3c3.6,3.2-4.4,16.3-4.9,17.3
	c0,0.1-0.9-14-3.6-15.2c-7.9-3.3-9.4-0.7-10-2.7c-0.6-2,1-1.6,2.3-2.9c1.8-1.9,1.5-14.9,1.4-23.4c0-0.4-0.6-0.7-0.9-0.4
	c-2.6,2.5-2,6.5-4.6,11.1c-3,5.3-15.6,15.4-15,25c0.4,6.3,0.1,10.6-2.6,14.7c-0.3,0.4-1,0.2-1-0.3c0-3.1,0.1-10.1,0.1-13.5
	c0-0.5-0.7-0.7-1-0.3c-1.3,2.3-3.8,6.6-6.3,10.8l-15.7-8.4c6.3-5,9.9-10.4,15.9-13.9c4.5-2.7,7.1-2.1,9.7-6.5
	c2.5-4.3,1.9-7.6,5.2-12c1.3-1.7,13.1-16.6,13.3-19.9c-13,14.1-41,43.2-48,50.2l-15.6-8.3l-9,9.5c1.8-0.4,8.8-3.5,9-4.9
	c0.2-1.5,6.2,6.4,3.8,8.4c-1.3,1-9.8,8.1-11.3,9.9c-1,1.2-1.4-2.1-0.7-5.1c0.5-2.3,2.2-4.4,1.5-4.3c-1.6,0.2-5.3,3-7.4,4.6
	c-0.4,0.3-3,4-5.3,7c-1.6-0.9-2.3-0.5-1.7-1.1c0.8-0.7,3.3-4.1,4.9-6.8l-10.2,10.9l-10.7-9.7c0,0,0.2,1.6-0.7,2.9
	c-3.5,4.8,0.6,4.6,0.4,5.7c-0.1,0.6-2,2.3-4.7,3.9l-2.5-3.2c1-1,1.7-1.8,1.8-2c0.4-1.3,3-4.8,2.6-5.1l-6.2,4.8L580,51.7
	c-0.1-0.2,1.3,6.3,0,8.9c-1.1,2.1,1.6,2.8,2.9,6.4c1,2.8,4.2,8.3,4.2,8.4c0,0,0.7,7.2,2.9,9.2s-5.8-4.9-7.5-5.6
	c-4.8-2-5.1-9-5.2-14.2c0-0.3-0.3-0.4-0.5-0.2c-1.6,1.6-1.2,4-2.8,6.8c-1.1,2-7.5,6-12.1,8.7l-0.6-0.7c1.2-1.1,2.4-2.3,3-3.3
	c1.6-2.6,1.2-4.7,3.2-7.4c0.8-1.1,8.1-10.2,8.2-12.2c-4.4,4.8-11.7,12.5-18.1,19.1l-24.6-25.6c0,0,0.3,2.3-1,4.1
	c-4.9,6.6,0.8,6.3,0.5,7.9c-0.1,0.8-2.8,3.1-6.5,5.4l-3.5-4.4c1.4-1.4,2.4-2.4,2.5-2.8c0.5-1.8,4.2-6.6,3.6-7l-8.6,6.6L488,19.3
	c-0.2-0.2,1.8,8.8,0,12.3c-1.5,2.9,2.3,3.9,4.1,8.9c1.4,3.9,3.4,9.4,5.9,11.6c0,0,0,0,0,0c-1.3-3-0.1-0.2,0,0c0,0,0,0.1,0,0.1
	c1.4,3.3-3.9,5.3-0.9,8c3.1,2.7-3.8,13.9-4.2,14.8c0,0.1-0.7-11.9-3.1-12.9c-6.7-2.8-8-0.6-8.5-2.3c-0.5-1.7,0.9-1.3,1.9-2.4
	c1.5-1.6,1.3-12.7,1.2-19.9c0-0.4-0.5-0.6-0.8-0.3c-2.3,2.2-1.7,5.6-3.9,9.5c-2.5,4.5-13.3,13.1-12.8,21.3c0.3,5.3,0,9-2.2,12.6
	c-0.2,0.4-0.8,0.2-0.8-0.2c0-2.7,0.1-8.6,0.1-11.6c0-0.5-0.6-0.6-0.8-0.2c-1.1,1.9-3.3,5.6-5.4,9.2l-13.4-7.1
	c5.4-4.3,8.4-8.9,13.5-11.9c3.9-2.3,6.1-1.8,8.3-5.5c2.2-3.7,1.6-6.5,4.4-10.2c1.1-1.5,11.2-14.2,11.4-16.9
	c-11.1,12-35,36.9-40.9,42.8l-13.3-7.1l-2,2.1l-26.8-27.8c0,0,0.3,2.7-1.2,4.8c-5.7,7.7,0.9,7.4,0.6,9.3c-0.2,0.9-3.3,3.7-7.6,6.4
	l-4.1-5.2c1.6-1.6,2.8-2.9,2.9-3.2c0.6-2.2,4.9-7.8,4.2-8.2l-10.1,7.7L346.2,0c-0.2-0.2,2.1,10.3,0,14.4c-1.7,3.4,2.6,4.6,4.8,10.4
	c1.7,4.6,4,11,6.9,13.6c0,0,0,0,0,0c-1.5-3.6-0.1-0.2,0,0c0,0,0,0.1,0,0.1c1.6,3.9-4.6,6.2-1,9.3c3.6,3.2-4.4,16.3-4.9,17.3
	c0,0.1-0.9-14-3.6-15.2c-7.9-3.3-9.4-0.7-10-2.7s1-1.6,2.3-2.9c1.8-1.9,1.5-14.9,1.4-23.4c0-0.4-0.6-0.7-0.9-0.4
	c-2.6,2.5-2,6.5-4.6,11.1c-3,5.3-15.6,15.4-15,25c0.4,6.3,0.1,10.6-2.6,14.7c-0.3,0.4-1,0.2-1-0.3c0-3.1,0.1-10.1,0.1-13.5
	c0-0.5-0.7-0.7-1-0.3c-1.3,2.3-3.8,6.6-6.3,10.8l-15.7-8.4c6.3-5,9.9-10.4,15.9-13.9c4.5-2.7,7.1-2.1,9.7-6.5
	c2.5-4.3,1.9-7.6,5.2-12c1.3-1.7,13.1-16.6,13.3-19.9c-13,14.1-41,43.2-48,50.2l-15.6-8.3l-9,9.5c1.8-0.4,8.8-3.5,9-4.9
	c0.2-1.5,6.2,6.4,3.8,8.4c-1.3,1-9.8,8.1-11.3,9.9c-1,1.2-1.4-2.1-0.7-5.1c0.5-2.3,2.2-4.4,1.5-4.3c-1.6,0.2-5.3,3-7.4,4.6
	c-0.4,0.3-3,4-5.3,7c-1.6-0.9-2.3-0.5-1.7-1.1c0.8-0.7,3.3-4.1,4.9-6.8l-10.2,10.9l-10.7-9.7c0,0,0.2,1.6-0.7,2.9
	c-3.5,4.8,0.6,4.6,0.4,5.7c-0.1,0.6-2,2.3-4.7,3.9l-2.5-3.2c1-1,1.7-1.8,1.8-2c0.4-1.3,3-4.8,2.6-5.1l-6.2,4.8L206,45.8
	c-0.1-0.2,1.3,6.3,0,8.9c-1.1,2.1,1.6,2.8,2.9,6.4c1,2.8,4.2,8.3,4.2,8.4c0,0,0.7,7.2,2.9,9.2s-5.8-4.9-7.5-5.6
	c-4.8-2-5.1-9-5.2-14.2c0-0.3-0.3-0.4-0.5-0.2c-1.6,1.6-1.2,4-2.8,6.8c-1.1,2-7.5,6-12.1,8.7l-0.6-0.7c1.2-1.1,2.4-2.3,3-3.3
	c1.6-2.6,1.2-4.7,3.2-7.4c0.8-1.1,8.1-10.2,8.2-12.2c-4.4,4.8-11.7,12.5-18.1,19.1L159.1,44c0,0,0.3,2.3-1,4.1
	c-4.9,6.6,0.8,6.3,0.5,7.9c-0.1,0.8-2.8,3.1-6.5,5.4l-3.5-4.4c1.4-1.4,2.4-2.4,2.5-2.8c0.5-1.8,4.2-6.6,3.6-7l-8.6,6.6L114,13.5
	c-0.2-0.2,1.8,8.8,0,12.3c-1.5,2.9,2.3,3.9,4.1,8.9c1.4,3.9,3.4,9.4,5.9,11.6c0,0,0,0,0,0c-1.3-3-0.1-0.2,0,0c0,0,0,0.1,0,0.1
	c1.4,3.3-3.9,5.3-0.9,8s-3.8,13.9-4.2,14.8c0,0.1-0.7-11.9-3.1-12.9c-6.7-2.8-8-0.6-8.5-2.3c-0.5-1.7,0.9-1.3,1.9-2.4
	c1.5-1.6,1.3-12.7,1.2-19.9c0-0.4-0.5-0.6-0.8-0.3c-2.3,2.2-1.7,5.6-3.9,9.5c-2.5,4.5-13.3,13.1-12.8,21.3c0.3,5.3,0,9-2.2,12.6
	c-0.2,0.4-0.8,0.2-0.8-0.2c0-2.7,0.1-8.6,0.1-11.6c0-0.5-0.6-0.6-0.8-0.2c-1.1,1.9-3.3,5.6-5.4,9.2l-13.4-7.1
	c5.4-4.3,8.4-8.9,13.5-11.9c3.9-2.3,6.1-1.8,8.3-5.5c2.2-3.7,1.6-6.5,4.4-10.2c1.1-1.5,11.2-14.2,11.4-16.9
	C97,32,73.1,56.9,67.1,62.8l-13.3-7.1l-7.7,8.1c1.5-0.4,7.5-3,7.7-4.2c0.2-1.2,5.3,5.5,3.2,7.1c-1.1,0.9-8.4,6.9-9.6,8.5
	c-0.8,1-1.2-1.8-0.6-4.4c0.4-1.9,1.9-3.8,1.3-3.7c-1.4,0.2-4.5,2.6-6.3,3.9c-0.3,0.3-2.6,3.4-4.5,5.9c-1.3-0.7-2-0.5-1.5-0.9
	c0.7-0.6,2.8-3.5,4.2-5.8L32.8,78l-15.6-9.8L0,91.7L824.9,91.5z M195.8,80.8v1.3l-1.3-1.3H195.8z M427.8,65.5
	c0.1-0.7,1.7,1.1,2.8,3.1l-2.8-2.9C427.8,65.6,427.8,65.5,427.8,65.5z"/>
</svg>