<!-- Generator: Adobe Illustrator 18.0.0, SVG Export Plug-In  -->
<svg version="1.1"
	 xmlns="http://www.w3.org/2000/svg" xmlns:xlink="http://www.w3.org/1999/xlink" xmlns:a="http://ns.adobe.com/AdobeSVGViewerExtensions/3.0/"
	 x="0px" y="0px" width="162.6px" height="44px" viewBox="0 0 162.6 44" enable-background="new 0 0 162.6 44" xml:space="preserve"
	>
<defs>
</defs>
<g opacity="0.36">
	<g>
		<path fill="#FFFFFF" d="M12.3,30.6v-9.9l-4,9.9H7l-4-9.9v9.9H0V16.4h4.2L7.6,25l3.4-8.5h4.2v14.1H12.3z"/>
		<path fill="#FFFFFF" d="M21.6,30.6V19.1h-4.1v-2.6h11.3v2.6h-4.1v11.5H21.6z"/>
		<path fill="#FFFFFF" d="M40.7,30.6l-6.7-9.2v9.2h-3V16.4H34l6.5,8.9v-8.9h3v14.1H40.7z"/>
		<path fill="#FFFFFF" d="M59.9,30.6v-9.9l-4,9.9h-1.3l-4-9.9v9.9h-3V16.4h4.2l3.4,8.5l3.4-8.5h4.2v14.1H59.9z"/>
		<path fill="#FFFFFF" d="M66,30.6V16.4h10v2.6h-7v3h6.8v2.6H69v3.2h7v2.6H66z"/>
		<path fill="#FFFFFF" d="M78.6,30.6V16.4h3v14.1H78.6z"/>
		<path fill="#FFFFFF" d="M83.7,28.6l1.6-2.3c1,1,2.5,1.9,4.5,1.9c1.7,0,2.5-0.8,2.5-1.6c0-2.5-8.1-0.8-8.1-6.1c0-2.4,2-4.3,5.4-4.3
			c2.2,0,4.1,0.7,5.5,2l-1.7,2.2c-1.1-1.1-2.7-1.5-4.1-1.5c-1.3,0-2,0.6-2,1.4c0,2.2,8.1,0.7,8.1,6c0,2.6-1.8,4.5-5.7,4.5
			C87,30.8,85,29.9,83.7,28.6z"/>
		<path fill="#FFFFFF" d="M100.6,30.6V19.1h-4.1v-2.6h11.3v2.6h-4.1v11.5H100.6z"/>
		<path fill="#FFFFFF" d="M109.9,30.6V16.4h10v2.6h-7v3h6.8v2.6h-6.8v3.2h7v2.6H109.9z"/>
		<path fill="#FFFFFF" d="M130.5,30.6l-2.8-5h-2.2v5h-3V16.4h6.6c2.9,0,4.7,1.9,4.7,4.6c0,2.5-1.6,3.8-3.1,4.2l3.2,5.4H130.5z
			 M130.8,21c0-1.2-0.9-1.9-2.1-1.9h-3.2v3.8h3.2C129.9,22.9,130.8,22.2,130.8,21z"/>
	</g>
</g>
<g>
	<g>
		<g>
			<g>
				<path fill="#f8992f" d="M148.9,37.3c5.8-8.5,5.6-19.6-0.4-27.9C155.8,17.1,155.9,29.3,148.9,37.3z"/>
			</g>
			<g>
				<path fill="#f8992f" d="M154.3,44c10.6-13,9.5-32.1-2.4-44C165.1,11,166.2,31.7,154.3,44z"/>
			</g>
		</g>
		<g>
			<g>
				<path fill="#f8992f" d="M143,30.1c2.6-4,2.6-8.4,0.1-12.4C146.2,21.7,146.2,26.1,143,30.1z"/>
			</g>
		</g>
	</g>
</g>
</svg>
