<?xml version="1.0" encoding="utf-8"?>
<!-- Generator: Adobe Illustrator 18.0.0, SVG Export Plug-In . SVG Version: 6.00 Build 0)  -->
<!DOCTYPE svg PUBLIC "-//W3C//DTD SVG 1.1//EN" "http://www.w3.org/Graphics/SVG/1.1/DTD/svg11.dtd">
<svg version="1.1" id="Layer_1" xmlns="http://www.w3.org/2000/svg" xmlns:xlink="http://www.w3.org/1999/xlink" x="0px" y="0px"
	 viewBox="-437.8 181.1 908.4 270.3" enable-background="new -437.8 181.1 908.4 270.3" xml:space="preserve">
<g id="Layer_2">
</g>
<g id="Layer_1_1_">
	<g>
		<g>
			<g>
				<g>
					<path fill="#F69220" d="M357.7,248.7c-4.6-23.9-23.3-42.1-47.4-46C335.5,203.5,356.2,223.7,357.7,248.7z"/>
				</g>
				<g>
					<path fill="#F69220" d="M377.9,250.9c-4-39.6-37.7-69.6-77.5-69.5C340.8,177.7,377.4,210.3,377.9,250.9z"/>
				</g>
			</g>
			<g>
				<g>
					<path fill="#F69220" d="M335.9,246.5c-2.2-11-9.6-18.5-20.6-21C327.2,227.2,334.6,234.7,335.9,246.5z"/>
				</g>
			</g>
		</g>
	</g>
	<path fill="#043F7E" d="M434.6,329.1v7.8l-40-40.4c0,0,0.7,5.1-2.3,9c-10.9,14.6,1.7,14.1,1.1,17.6c-0.3,1.7-6.3,6.9-14.5,12.1
		l-7.8-9.8c3.1-3,5.3-5.4,5.6-6.1c1.1-4.1,9.2-14.8,8-15.6l-19.1,14.6l-66.7-70.3c-0.4-0.5-0.5,25.9-4.4,33.7
		c-3.2,6.5-1.4,8.7,2.6,19.7c3.2,8.7,7.5,20.9,13.1,25.8c0,0,0,0,0-0.1c-2.8-6.8-0.2-0.4,0,0c0,0.1,0.1,0.2,0.1,0.2
		c3,7.4-8.7,11.7-2,17.6c6.8,6-8.3,30.9-9.3,32.8c-0.1,0.2-1.6-26.6-6.8-28.8c-14.9-6.3-17.8-1.4-18.9-5.2s2-2.9,4.3-5.4
		c3.4-3.6,2.9-28.1,2.5-44.2c0-0.8-1.1-1.3-1.6-0.7c-5,4.8-3.8,12.3-8.7,21c-5.6,10-29.7,29.1-28.4,47.3c0.7,11.8,0.2,20.1-5,27.9
		c-0.5,0.8-1.8,0.5-1.8-0.5c0-5.9,0.2-19.2,0.2-25.7c0-1.1-1.3-1.4-1.8-0.5c-2.5,4.3-59.7,30.6-51.5,22.4c8.3-8.3,9.8-17.7,9.8-17.7
		c12-9.5,18.7-19.7,30-26.4c8.6-5.1,13.5-3.9,18.4-12.2c4.7-8.1,3.6-14.5,9.8-22.7c2.5-3.2,37.7-44.4,38.1-50.5
		c-24.7,26.6-91.8,94.7-105.1,107.9c0,0-0.5,0.5-1.4,1.4c-11.8-9-41.6-27.7-41.6-27.7s14.6,23.9,16.1,25.9c3.9,5.2,3.2-3.5,6.2,1.6
		c1.2,2,2.5,3.2,3.8,4c-2.6,2.6-5.9,5.9-8.9,8.8c-5.1-3.4-11.9-5.4-14.1-9.2c-3.1-5.6,0.2-3.2-2.9-6.3c-0.4-0.4-1.1-0.1-1.1,0.5
		c-0.2,10.3-23.6,18.6-21.7,14c0-0.1,0-0.1,0.1-0.2c0.1-0.2,1.8-4.3,0,0c3.5-3.2,6.3-10.9,8.3-16.4c2.5-7,7.8-8.5,5.8-12.6
		c-2.5-5,0.2-17.7,0.1-17.4L74.1,384l-12.8-8.3c-0.7,0.6,4.2,9.7,5,12.3c0.2,0.5,1.6,2,3.5,3.9l-5,6.2c-5.2-3.3-9.1-6.5-9.2-7.7
		c-0.4-2.3,7.7-1.9,0.7-11.2c-1.9-2.5-1.4-5.7-1.4-5.7l-27.6,24.5l-61.2-6.6c0,0-81.4,11.5-96.8,15l-162.6-5.5l-83.9,5.8
		c-0.2-2.4-0.9-6.5-1.1-7.9c-0.2-1.4-0.7-3.4-0.6-4.8c0.1-1.1-0.6-3.4-0.8-3.8c-1.1,1.6,1.7,3.1-2.9,3c-0.4-1.2-0.3-2.5-1.1-3.7
		c0.6-1.4,0.2,0.2,0.7-1.4c0.4-1.4-0.4-0.5,0.7-1.2c-1.5-0.3-0.7-1.8-3.1-0.5c-0.4,1.6,0.2,1.3,0.3,2.9c-1.6-0.8-0.3-1.1-1.1-2.6
		c-3,0.4-1.1,0.7-2,2.6c-1.6,3.1-0.3,3.3-0.2,4.4v0.6c0.1,1.3,0.4,1.5,1.8,1.7c0.1,2.2,0.4,1.3,0,3.3c-0.3,1.6,0.2,1.6-1,3
		c-0.7,1-0.8,1.9-1.5,2.8c-0.6,0.8-1.3,0.9-2,2c0.2,0.2,0.4,0.4,0.7,0.6l-47.4,3.3v40.4l908.4-0.6v-97.2L434.6,329.1z M-379.7,393.8
		l2,13l-3.1,0.2c-1.5-1-0.7-1.9-1.1-5.4c-0.2-1.8,0.1-1.5-0.7-3.3c-0.2-0.7-0.7-2.7-0.7-3.6L-379.7,393.8z M-388.6,407.5
		c-0.6-1.2,0.9-2.7,1.5-3.3c2.1-2.6,2.5-3.4,3.5-2.6c0.9,0.7,0.3,0.4,0.3,1.7c0,1.2,0.2,0.8,0.4,1.8s0.2,1.7,0.1,2.2l-5.7,0.4
		C-388.6,407.6-388.6,407.6-388.6,407.5z"/>
</g>
</svg>
