<?xml version="1.0" encoding="utf-8"?>
<!-- Generator: Adobe Illustrator 18.0.0, SVG Export Plug-In . SVG Version: 6.00 Build 0)  -->
<!DOCTYPE svg PUBLIC "-//W3C//DTD SVG 1.1//EN" "http://www.w3.org/Graphics/SVG/1.1/DTD/svg11.dtd">
<svg version="1.1" xmlns="http://www.w3.org/2000/svg" xmlns:xlink="http://www.w3.org/1999/xlink" x="0px" y="0px"
	 viewBox="-438 0 1101.5 340.7" enable-background="new -438 0 1101.5 340.7" xml:space="preserve">
<g id="Layer_2">
</g>
<g id="Layer_1">
	<g>
		<g>
			<g>
				<g>
					<path fill="#f8992f" d="M535.9,127.6c-5.6-29.2-28.5-51.5-58-56.3C508.7,72.2,534,97,535.9,127.6z"/>
				</g>
				<g>
					<path fill="#f8992f" d="M560.6,130.3c-4.9-48.5-46.1-85.2-94.9-85.1C515.2,40.7,559.9,80.6,560.6,130.3z"/>
				</g>
			</g>
			<g>
				<g>
					<path fill="#f8992f" d="M509.2,124.9c-2.7-13.5-11.7-22.6-25.2-25.7C498.5,101.2,507.6,110.4,509.2,124.9z"/>
				</g>
			</g>
		</g>
	</g>
	<g>
		<path fill="#043f7e" d="M-438,326.2v49.4L674,375V256l-44-30v9.5l-48.9-49.5c0,0,0.8,6.2-2.8,11c-13.3,17.9,2.1,17.2,1.4,21.5
			c-0.4,2.1-7.7,8.5-17.7,14.8l-9.5-12c3.8-3.7,6.5-6.6,6.8-7.5c1.4-5,11.2-18.1,9.8-19.1l-23.4,17.9l-81.6-86
			c-0.5-0.6-0.6,31.7-5.4,41.3c-3.9,7.9-1.7,10.6,3.2,24.1c3.9,10.7,9.2,25.6,16,31.6c0,0,0,0,0-0.1c-3.4-8.3-0.2-0.5,0,0
			c0,0.1,0.1,0.2,0.1,0.2c3.7,9-10.7,14.3-2.4,21.6c8.3,7.4-10.2,37.8-11.4,40.2c-0.1,0.2-2-32.5-8.3-35.2
			c-18.2-7.7-21.8-1.7-23.1-6.4c-1.3-4.7,2.4-3.6,5.3-6.6c4.2-4.4,3.5-34.4,3.1-54.1c0-1-1.3-1.6-2-0.9c-6.1,5.9-4.7,15.1-10.6,25.7
			c-6.8,12.3-36.3,35.6-34.8,57.9c0.9,14.5,0.2,24.6-6.1,34.1c-0.6,1-2.2,0.6-2.2-0.6c0-7.2,0.2-23.5,0.2-31.4
			c0-1.3-1.6-1.7-2.2-0.6c-3.1,5.3-73.1,37.5-63,27.4c10.1-10.1,12-21.7,12-21.7c14.7-11.6,22.9-24.1,36.7-32.3
			c10.5-6.3,16.5-4.8,22.5-14.9c5.8-9.9,4.4-17.7,12-27.8c3-3.9,46.1-54.3,46.6-61.8c-30.2,32.6-112.4,115.9-128.6,132
			c0,0-0.6,0.6-1.7,1.7c-14.5-11-50.9-33.9-50.9-33.9s17.9,29.2,19.7,31.7c4.8,6.4,3.9-4.3,7.6,2c1.5,2.5,3,3.9,4.6,4.9
			c-3.2,3.2-7.2,7.2-10.9,10.8c-6.2-4.2-14.6-6.6-17.2-11.3c-3.8-6.8,0.3-3.9-3.6-7.7c-0.5-0.5-1.3-0.1-1.3,0.6
			c-0.2,12.6-28.9,22.8-26.6,17.1c0-0.1,0-0.1,0.1-0.2c0.1-0.3,2.2-5.3,0,0c4.3-3.9,7.7-13.3,10.1-20.1c3.1-8.6,9.6-10.4,7.1-15.4
			c-3.1-6.1,0.3-21.7,0.1-21.3l-70.1,66L173,283c-0.9,0.7,5.2,11.9,6.1,15.1c0.2,0.6,1.9,2.4,4.3,4.8l-6.1,7.6
			c-6.4-4-11.1-8-11.3-9.4c-0.5-2.8,9.4-2.3,0.9-13.7c-2.3-3.1-1.7-7-1.7-7l-33.8,30c0,0-74.9-8.1-74.9-8.1S-43.1,316.4-62,320.7
			l-199-6.7L-438,326.2z"/>
	</g>
	<path fill-rule="evenodd" clip-rule="evenodd" fill="#043f7e" d="M-371.7,300c0.7-1.7,0.3,0.2,0.9-1.7c0.5-1.7-0.5-0.6,0.8-1.5
		c-1.8-0.4-0.9-2.2-3.8-0.6c-0.5,2,0.3,1.6,0.4,3.5c-1.9-1-0.4-1.4-1.4-3.2c-3.7,0.5-1.3,0.9-2.5,3.2c-1.9,3.8-0.4,4-0.2,5.4
		c0,0,0,0.7,0,0.7c0.1,1.6,0.5,1.8,2.2,2.1c0.1,2.7,0.5,1.6,0,4.1c-0.4,1.9,0.2,2-1.2,3.7c-0.9,1.2-1,2.3-1.8,3.4
		c-0.7,1-1.6,1.1-2.4,2.5c1,1.2,2.8,1.8,4.3,1.7c-0.8-1.6-0.6-0.2-1.1-1.3c-0.7-1.5,1.1-3.3,1.8-4.1c2.6-3.2,3.1-4.2,4.3-3.2
		c1.1,0.9,0.4,0.5,0.4,2.1c0,1.5,0.2,1,0.5,2.2c0.8,3-1.4,4.3,2.2,4.1l2.3-0.5c-0.5-0.8,0-0.2-0.8-0.6c-3-1.6-1.8-2.2-2.2-7.1
		c-0.2-2.2,0.1-1.8-0.8-4.1c-0.3-0.9-0.9-3.3-0.8-4.4l4.1-1l2.8,17.7c0.4-1.6-1-9.2-1.4-11.6c-0.2-1.7-0.8-4.2-0.7-5.9
		c0.1-1.4-0.7-4.2-1-4.7c-1.3,1.9,2.1,3.8-3.5,3.7C-370.9,303-370.8,301.5-371.7,300z"/>
</g>
</svg>
