<?xml version="1.0" encoding="utf-8"?>
<!-- Generated by IcoMoon.io -->
<!DOCTYPE svg PUBLIC "-//W3C//DTD SVG 1.1//EN" "http://www.w3.org/Graphics/SVG/1.1/DTD/svg11.dtd">
<svg version="1.1" xmlns="http://www.w3.org/2000/svg" xmlns:xlink="http://www.w3.org/1999/xlink" width="40" height="40" viewBox="0 0 40 40">
<path fill="#000000" d="M35.090 30.936l-7.558-7.558c1.14-1.874 1.796-4.070 1.796-6.424 0-6.832-5.922-12.754-12.756-12.754-6.832 0-12.372 5.54-12.372 12.372 0 6.834 5.92 12.756 12.754 12.756 2.272 0 4.4-0.616 6.23-1.686l7.598 7.6c0.746 0.744 1.95 0.744 2.692 0l1.886-1.884c0.742-0.744 0.472-1.68-0.27-2.422zM8.008 16.572c0-4.73 3.834-8.566 8.564-8.566 4.732 0 8.948 4.216 8.948 8.948s-3.834 8.566-8.566 8.566-8.946-4.216-8.946-8.948z"></path>
</svg>
